<svg width="68" height="16" viewBox="0 0 68 16" fill="none" xmlns="http://www.w3.org/2000/svg">
<path d="M6.68046 15.6486C7.43085 15.6486 8.15736 15.5531 8.85999 15.3621C9.56945 15.1711 10.2039 14.8846 10.7633 14.5026C11.3226 14.1137 11.766 13.626 12.0935 13.0393C12.4277 12.4458 12.5949 11.7534 12.5949 10.9621C12.5949 10.2186 12.455 9.60461 12.1753 9.12027C11.9025 8.63592 11.5512 8.24709 11.1214 7.95375C10.6984 7.6536 10.255 7.42166 9.79116 7.25794C9.32728 7.0874 8.90434 6.95096 8.52232 6.84864L5.96418 6.15282C5.65038 6.07096 5.34341 5.96864 5.04325 5.84585C4.7431 5.72306 4.49411 5.56275 4.29628 5.36492C4.09845 5.16027 3.99953 4.89763 3.99953 4.57701C3.99953 4.2291 4.11891 3.92895 4.35767 3.67655C4.60325 3.42414 4.91705 3.23314 5.29907 3.10352C5.6879 2.96709 6.10062 2.90569 6.53721 2.91934C7.20573 2.9398 7.81969 3.13763 8.37907 3.51283C8.93845 3.88802 9.3 4.43375 9.46372 5.15003L12.4721 4.63841C12.1174 3.2536 11.4284 2.19283 10.4051 1.45608C9.38186 0.719339 8.1062 0.340735 6.57814 0.32027C5.56852 0.313448 4.64759 0.470347 3.81535 0.790967C2.9831 1.11159 2.31798 1.59934 1.82 2.25422C1.32202 2.9091 1.07302 3.73112 1.07302 4.72027C1.07302 5.4229 1.18899 6.00616 1.42093 6.47003C1.65969 6.92709 1.95643 7.29546 2.31116 7.57515C2.66589 7.85484 3.03085 8.06972 3.40604 8.2198C3.78806 8.36988 4.12232 8.48585 4.40883 8.56771L8.23581 9.69329C8.80883 9.86383 9.19085 10.0787 9.38186 10.3379C9.57286 10.5903 9.66837 10.8666 9.66837 11.1668C9.66837 11.5761 9.52852 11.9206 9.24883 12.2003C8.97596 12.48 8.62465 12.6914 8.19488 12.8347C7.76511 12.9779 7.3217 13.0496 6.86465 13.0496C6.04604 13.0496 5.31612 12.821 4.67488 12.364C4.03364 11.9069 3.6107 11.2555 3.40604 10.4096L0.5 10.8393C0.650077 11.8353 1.00481 12.6948 1.56419 13.4179C2.13039 14.1342 2.85008 14.6868 3.72325 15.0756C4.60325 15.4576 5.58899 15.6486 6.68046 15.6486Z" fill="#0B0F19"/>
<path d="M15.0486 2.75562H17.8319V0.299805H15.0486V2.75562ZM15.0486 15.3417H17.8319V4.2905H15.0486V15.3417Z" fill="#0B0F19"/>
<path d="M21.1042 15.3417H23.8875V0.299805H21.1042V15.3417Z" fill="#0B0F19"/>
<path d="M27.1598 2.75562H29.9431V0.299805H27.1598V2.75562ZM27.1598 15.3417H29.9431V4.2905H27.1598V15.3417Z" fill="#0B0F19"/>
<path d="M37.8814 15.6486C39.1639 15.6486 40.2417 15.3314 41.1149 14.697C41.9881 14.0626 42.5816 13.1587 42.8954 11.9854L40.0507 11.3919C39.887 11.924 39.6414 12.3333 39.314 12.6198C38.9865 12.9063 38.509 13.0496 37.8814 13.0496C37.0424 13.0496 36.4079 12.7528 35.9782 12.1593C35.5552 11.559 35.3438 10.7779 35.3438 9.81608C35.3438 8.89515 35.545 8.12771 35.9475 7.51375C36.3568 6.89298 37.0014 6.58259 37.8814 6.58259C38.3931 6.58259 38.8501 6.7429 39.2526 7.06352C39.6619 7.38414 39.9484 7.83096 40.1121 8.40399L42.8954 7.66724C42.6498 6.52802 42.0836 5.63096 41.1968 4.97608C40.3168 4.31438 39.2253 3.98352 37.9224 3.98352C36.7968 3.98352 35.8213 4.23593 34.9959 4.74073C34.1704 5.24554 33.5292 5.93794 33.0721 6.81794C32.6219 7.69794 32.3968 8.69732 32.3968 9.81608C32.3968 10.9212 32.6151 11.9138 33.0517 12.7938C33.4883 13.6737 34.1159 14.3696 34.9345 14.8812C35.7531 15.3928 36.7354 15.6486 37.8814 15.6486Z" fill="#0B0F19"/>
<path d="M49.6153 15.6486C50.7204 15.6486 51.6925 15.4031 52.5316 14.9119C53.3775 14.4139 54.0358 13.7283 54.5065 12.8551C54.984 11.9751 55.2227 10.9621 55.2227 9.81608C55.2227 8.67685 54.9874 7.67065 54.5167 6.79747C54.046 5.91748 53.3877 5.22848 52.5418 4.7305C51.7027 4.23251 50.7272 3.98352 49.6153 3.98352C48.5238 3.98352 47.5585 4.2291 46.7195 4.72027C45.8804 5.21143 45.2221 5.89701 44.7446 6.77701C44.2671 7.65019 44.0283 8.66321 44.0283 9.81608C44.0283 10.9553 44.2603 11.9649 44.7241 12.8449C45.1948 13.7181 45.8497 14.4037 46.6888 14.9017C47.5279 15.3996 48.5034 15.6486 49.6153 15.6486ZM49.6153 13.0496C48.7489 13.0496 48.0906 12.7596 47.6404 12.1798C47.197 11.5931 46.9753 10.8052 46.9753 9.81608C46.9753 8.85422 47.1868 8.07654 47.6097 7.48306C48.0395 6.88275 48.708 6.58259 49.6153 6.58259C50.4953 6.58259 51.157 6.87592 51.6004 7.46259C52.0506 8.04926 52.2758 8.83375 52.2758 9.81608C52.2758 10.7643 52.0541 11.542 51.6106 12.1491C51.174 12.7494 50.5089 13.0496 49.6153 13.0496Z" fill="#0B0F19"/>
<path d="M57.4525 15.3417H60.2767V9.73422C60.2767 9.04522 60.3517 8.49267 60.5018 8.07654C60.6587 7.66042 60.8565 7.34662 61.0953 7.13515C61.334 6.91685 61.5898 6.77019 61.8627 6.69515C62.1356 6.62011 62.3914 6.58259 62.6301 6.58259C63.2236 6.58259 63.6807 6.71561 64.0013 6.98166C64.3287 7.24771 64.5641 7.57856 64.7074 7.97422C64.8506 8.36988 64.9359 8.76554 64.9632 9.16119C64.9904 9.55003 65.0041 9.87065 65.0041 10.1231V15.3417H67.8283V9.14073C67.8283 8.95654 67.8146 8.66321 67.7873 8.26073C67.7601 7.85825 67.6816 7.41484 67.552 6.9305C67.4224 6.43934 67.2041 5.96864 66.8971 5.51841C66.597 5.06817 66.174 4.69639 65.6283 4.40306C65.0825 4.10972 64.3765 3.96306 63.5101 3.96306C62.712 3.96306 62.0162 4.09608 61.4227 4.36213C60.8292 4.62817 60.3312 4.9829 59.9287 5.42631V4.2905H57.4525V15.3417Z" fill="#0B0F19"/>
</svg>
