<svg width="20" height="20" viewBox="0 0 20 20" fill="none" xmlns="http://www.w3.org/2000/svg">
<path d="M16.3612 6.66412C16.372 6.80995 16.372 6.95495 16.372 7.09995C16.372 11.5375 12.9945 16.6508 6.82199 16.6508C4.92033 16.6508 3.15366 16.1 1.66699 15.1433C1.93699 15.1741 2.19699 15.185 2.47783 15.185C4.04699 15.185 5.49116 14.655 6.64533 13.7508C5.16949 13.72 3.93283 12.7533 3.50616 11.4233C3.71366 11.4541 3.92199 11.475 4.14033 11.475C4.44116 11.475 4.74366 11.4333 5.02449 11.3608C3.48533 11.0491 2.33283 9.69829 2.33283 8.06662V8.02495C2.78033 8.27412 3.29949 8.42995 3.84949 8.45079C2.94533 7.84912 2.35283 6.81995 2.35283 5.65579C2.35283 5.03245 2.51866 4.46079 2.80949 3.96245C4.46199 5.99829 6.94616 7.32912 9.73116 7.47495C9.67949 7.22495 9.64783 6.96579 9.64783 6.70579C9.64783 4.85579 11.1445 3.34912 13.0045 3.34912C13.9712 3.34912 14.8437 3.75412 15.457 4.40912C16.2153 4.26329 16.942 3.98245 17.587 3.59829C17.3378 4.37745 16.807 5.03245 16.1112 5.44829C16.787 5.37495 17.442 5.18829 18.0437 4.92829C17.587 5.59329 17.0162 6.18579 16.3612 6.66412Z" fill="#33354D"/>
</svg>
