<svg width="20" height="20" viewBox="0 0 20 20" fill="none" xmlns="http://www.w3.org/2000/svg">
<path d="M17.9944 6.00234C17.8028 5.28734 17.2403 4.72318 16.5261 4.53068C15.2211 4.17234 10.0003 4.16651 10.0003 4.16651C10.0003 4.16651 4.78027 4.16068 3.47444 4.50318C2.77444 4.69401 2.19611 5.27068 2.00277 5.98484C1.65861 7.28984 1.65527 9.99651 1.65527 9.99651C1.65527 9.99651 1.65194 12.7165 1.99361 14.0082C2.18527 14.7223 2.74777 15.2865 3.46277 15.479C4.78111 15.8373 9.98777 15.8432 9.98777 15.8432C9.98777 15.8432 15.2086 15.849 16.5136 15.5073C17.2269 15.3157 17.7919 14.7523 17.9861 14.0382C18.3311 12.734 18.3336 10.0282 18.3336 10.0282C18.3336 10.0282 18.3503 7.30734 17.9944 6.00234ZM8.33027 12.504L8.33444 7.50401L12.6736 10.0082L8.33027 12.504Z" fill="white"/>
</svg>
