<svg width="136" height="36" viewBox="0 0 136 36" fill="none" xmlns="http://www.w3.org/2000/svg">
<path d="M21.5694 16.8087C21.5333 12.899 24.8528 10.9968 25.0046 10.9083C23.1246 8.23587 20.2107 7.87073 19.1867 7.84162C16.7394 7.59051 14.3655 9.26942 13.1188 9.26942C11.8473 9.26942 9.9275 7.86588 7.85841 7.90713C5.19585 7.94716 2.70498 9.45017 1.33887 11.7841C-1.48046 16.5431 0.622213 23.5365 3.32335 27.3832C4.67453 29.2671 6.25341 31.3706 8.32 31.2966C10.3418 31.2153 11.097 30.0398 13.5369 30.0398C15.9543 30.0398 16.6635 31.2966 18.7712 31.2493C20.941 31.2153 22.3072 29.3569 23.6111 27.456C25.1725 25.2967 25.7996 23.1701 25.8245 23.061C25.7735 23.044 21.6104 21.4949 21.5694 16.8087Z" fill="white"/>
<path d="M17.588 5.31113C18.6754 3.98523 19.4194 2.18137 19.2129 0.35083C17.639 0.418763 15.6707 1.41228 14.5372 2.70906C13.5344 3.85179 12.6386 5.72479 12.87 7.48619C14.638 7.61477 16.4533 6.61641 17.588 5.31113Z" fill="white"/>
<path d="M50.7597 31.0262H47.9341L46.3864 26.2843H41.0065L39.5321 31.0262H36.7812L42.1114 14.8825H45.4035L50.7597 31.0262ZM45.9198 24.2948L44.5201 20.0794C44.372 19.6487 44.0946 18.6346 43.6852 17.0382H43.6355C43.4725 17.7248 43.21 18.7389 42.8492 20.0794L41.4743 24.2948H45.9198Z" fill="white"/>
<path d="M64.4669 25.0628C64.4669 27.0425 63.9182 28.6074 62.8209 29.7562C61.8379 30.7788 60.6174 31.2895 59.1605 31.2895C57.5878 31.2895 56.4581 30.7388 55.77 29.6373H55.7203V35.7694H53.0677V23.2177C53.0677 21.973 53.0341 20.6957 52.9694 19.3855H55.3022L55.4503 21.2306H55.5001C56.3847 19.8404 57.7271 19.1465 59.5287 19.1465C60.9372 19.1465 62.1129 19.6888 63.0535 20.7745C63.9966 21.8614 64.4669 23.2904 64.4669 25.0628ZM61.7645 25.1574C61.7645 24.0244 61.5033 23.0903 60.9782 22.3552C60.4046 21.5885 59.6345 21.2051 58.669 21.2051C58.0146 21.2051 57.4198 21.4186 56.8886 21.8396C56.3561 22.2642 56.0077 22.8185 55.8447 23.5052C55.7626 23.8254 55.7215 24.0874 55.7215 24.2937V26.2346C55.7215 27.0813 55.9878 27.7958 56.5203 28.3793C57.0528 28.9628 57.7446 29.254 58.5956 29.254C59.5947 29.254 60.3723 28.8779 60.9284 28.1282C61.4858 27.3773 61.7645 26.3874 61.7645 25.1574Z" fill="white"/>
<path d="M78.199 25.0628C78.199 27.0425 77.6503 28.6074 76.5517 29.7562C75.5701 30.7788 74.3495 31.2895 72.8926 31.2895C71.3199 31.2895 70.1902 30.7388 69.5034 29.6373H69.4536V35.7694H66.801V23.2177C66.801 21.973 66.7674 20.6957 66.7027 19.3855H69.0356L69.1837 21.2306H69.2334C70.1168 19.8404 71.4593 19.1465 73.2621 19.1465C74.6693 19.1465 75.845 19.6888 76.7881 20.7745C77.7275 21.8614 78.199 23.2904 78.199 25.0628ZM75.4967 25.1574C75.4967 24.0244 75.2341 23.0903 74.7091 22.3552C74.1355 21.5885 73.3679 21.2051 72.4011 21.2051C71.7454 21.2051 71.152 21.4186 70.6194 21.8396C70.0869 22.2642 69.7398 22.8185 69.5768 23.5052C69.4959 23.8254 69.4536 24.0874 69.4536 24.2937V26.2346C69.4536 27.0813 69.7199 27.7958 70.2499 28.3793C70.7824 28.9616 71.4742 29.254 72.3277 29.254C73.3268 29.254 74.1044 28.8779 74.6606 28.1282C75.218 27.3773 75.4967 26.3874 75.4967 25.1574Z" fill="white"/>
<path d="M93.5523 26.499C93.5523 27.8722 93.0634 28.9895 92.0817 29.852C91.003 30.7946 89.5012 31.2652 87.5715 31.2652C85.7898 31.2652 84.3615 30.9304 83.2803 30.2596L83.8949 28.1039C85.0595 28.7906 86.3373 29.1351 87.7295 29.1351C88.7286 29.1351 89.5062 28.9143 90.0649 28.4751C90.621 28.036 90.8985 27.4465 90.8985 26.7113C90.8985 26.0563 90.6695 25.5043 90.2104 25.0567C89.7538 24.6091 88.9911 24.193 87.9261 23.8084C85.0271 22.7542 83.5789 21.21 83.5789 19.1793C83.5789 17.8522 84.0865 16.764 85.103 15.9173C86.1158 15.0694 87.467 14.646 89.1566 14.646C90.6633 14.646 91.915 14.902 92.914 15.4127L92.2509 17.521C91.3177 17.0261 90.2627 16.7786 89.0819 16.7786C88.1488 16.7786 87.4197 17.003 86.8972 17.4494C86.4555 17.8485 86.234 18.335 86.234 18.9112C86.234 19.5493 86.4866 20.077 86.9942 20.4918C87.4359 20.8752 88.2384 21.2901 89.403 21.7377C90.8275 22.2969 91.8739 22.9508 92.547 23.7005C93.2176 24.4477 93.5523 25.383 93.5523 26.499Z" fill="white"/>
<path d="M102.323 21.3264H99.3988V26.9782C99.3988 28.4157 99.9138 29.1338 100.947 29.1338C101.421 29.1338 101.814 29.0938 102.125 29.0137L102.198 30.9777C101.676 31.1682 100.988 31.264 100.135 31.264C99.0877 31.264 98.269 30.9523 97.678 30.3299C97.0895 29.7064 96.7934 28.6607 96.7934 27.1917V21.324H95.0516V19.3831H96.7934V17.2517L99.3988 16.485V19.3831H102.323V21.3264Z" fill="white"/>
<path d="M115.515 25.11C115.515 26.8993 114.99 28.3684 113.942 29.5172C112.843 30.6999 111.385 31.2895 109.567 31.2895C107.816 31.2895 106.421 30.723 105.381 29.59C104.341 28.4569 103.821 27.0267 103.821 25.3029C103.821 23.4991 104.356 22.0215 105.429 20.8727C106.501 19.7227 107.946 19.1477 109.764 19.1477C111.516 19.1477 112.926 19.7143 113.989 20.8485C115.007 21.9488 115.515 23.3693 115.515 25.11ZM112.763 25.1938C112.763 24.1202 112.527 23.1994 112.051 22.4316C111.495 21.5023 110.7 21.0389 109.67 21.0389C108.603 21.0389 107.793 21.5036 107.237 22.4316C106.761 23.2007 106.525 24.1359 106.525 25.2423C106.525 26.3159 106.761 27.2366 107.237 28.0033C107.811 28.9325 108.612 29.3959 109.646 29.3959C110.659 29.3959 111.454 28.9228 112.027 27.979C112.516 27.1966 112.763 26.2661 112.763 25.1938Z" fill="white"/>
<path d="M124.137 21.6601C123.874 21.6127 123.594 21.5885 123.301 21.5885C122.368 21.5885 121.646 21.9318 121.138 22.6196C120.697 23.2261 120.475 23.9928 120.475 24.9184V31.0263H117.824L117.849 23.0515C117.849 21.7098 117.815 20.4882 117.749 19.3867H120.06L120.157 21.614H120.23C120.51 20.8485 120.952 20.2323 121.556 19.7701C122.147 19.354 122.786 19.1465 123.474 19.1465C123.719 19.1465 123.94 19.1635 124.137 19.1939V21.6601Z" fill="white"/>
<path d="M136 24.6551C136 25.1185 135.969 25.5092 135.903 25.8282H127.945C127.977 26.9782 128.361 27.8577 129.1 28.4642C129.771 29.0065 130.638 29.2782 131.703 29.2782C132.881 29.2782 133.956 29.095 134.923 28.7275L135.338 30.5228C134.209 31.0032 132.875 31.2422 131.336 31.2422C129.484 31.2422 128.031 30.7109 126.974 29.6494C125.919 28.588 125.39 27.1626 125.39 25.3745C125.39 23.6192 125.881 22.1574 126.865 20.9916C127.896 19.747 129.288 19.1247 131.04 19.1247C132.76 19.1247 134.063 19.747 134.948 20.9916C135.648 21.9803 136 23.2031 136 24.6551ZM133.471 23.9843C133.488 23.2176 133.315 22.5553 132.956 21.9961C132.497 21.2767 131.791 20.9176 130.842 20.9176C129.975 20.9176 129.269 21.2682 128.73 21.9718C128.289 22.531 128.026 23.2019 127.945 23.9831H133.471V23.9843Z" fill="white"/>
<path d="M45.0427 4.95099C45.0427 6.37879 44.6035 7.45358 43.7264 8.17537C42.9139 8.84135 41.7593 9.17495 40.2638 9.17495C39.5223 9.17495 38.8877 9.14341 38.3564 9.08033V1.27899C39.0495 1.16981 39.796 1.11401 40.6022 1.11401C42.0268 1.11401 43.1005 1.41606 43.8247 2.02018C44.6359 2.70315 45.0427 3.67968 45.0427 4.95099ZM43.6679 4.98617C43.6679 4.06059 43.4166 3.35093 42.9139 2.85599C42.4113 2.36227 41.6772 2.1148 40.7105 2.1148C40.2999 2.1148 39.9503 2.14149 39.6604 2.19729V8.12806C39.8209 8.15232 40.1145 8.16324 40.5412 8.16324C41.5391 8.16324 42.3092 7.89272 42.8517 7.35168C43.3942 6.81065 43.6679 6.02214 43.6679 4.98617Z" fill="white"/>
<path d="M52.3324 6.19804C52.3324 7.07752 52.0749 7.79809 51.5598 8.36339C51.0198 8.94446 50.3044 9.23438 49.4111 9.23438C48.5501 9.23438 47.8645 8.95659 47.3532 8.39857C46.8431 7.84177 46.588 7.13939 46.588 6.29266C46.588 5.40711 46.8505 4.68047 47.3781 4.11639C47.9056 3.5523 48.6148 3.26965 49.5081 3.26965C50.3691 3.26965 51.0609 3.54745 51.5847 4.10426C52.0823 4.64529 52.3324 5.34403 52.3324 6.19804ZM50.98 6.23928C50.98 5.71159 50.863 5.25911 50.6304 4.88184C50.3566 4.42572 49.9672 4.19766 49.4608 4.19766C48.937 4.19766 48.5389 4.42572 48.2652 4.88184C48.0313 5.25911 47.9155 5.71887 47.9155 6.26233C47.9155 6.79002 48.0325 7.2425 48.2652 7.61977C48.5476 8.07589 48.9408 8.30395 49.4484 8.30395C49.9461 8.30395 50.3367 8.07225 50.6179 7.60764C50.8593 7.22309 50.98 6.76697 50.98 6.23928Z" fill="white"/>
<path d="M62.1067 3.38611L60.2716 9.10458H59.0772L58.317 6.6214C58.1241 6.00152 57.9673 5.38527 57.8454 4.77388H57.8218C57.7085 5.40225 57.5518 6.01729 57.3502 6.6214L56.5427 9.10458H55.3346L53.609 3.38611H54.9489L55.6121 6.10463C55.7726 6.74756 55.9045 7.36017 56.0102 7.94002H56.0339C56.1309 7.46207 56.2914 6.8531 56.5179 6.11676L57.3502 3.38732H58.4128L59.2103 6.05853C59.4031 6.70996 59.5599 7.33712 59.6806 7.94124H59.7167C59.805 7.35289 59.9381 6.72573 60.1148 6.05853L60.8265 3.38732H62.1067V3.38611Z" fill="white"/>
<path d="M68.8664 9.1046H67.5625V5.82927C67.5625 4.81998 67.1693 4.31534 66.3805 4.31534C65.9936 4.31534 65.6813 4.45363 65.4387 4.73143C65.1986 5.00922 65.0766 5.33676 65.0766 5.7116V9.10338H63.7727V5.02014C63.7727 4.51793 63.7566 3.97325 63.7255 3.38369H64.8713L64.9323 4.27774H64.9684C65.1202 3.99994 65.3466 3.77067 65.644 3.58749C65.9973 3.37399 66.393 3.26602 66.826 3.26602C67.3734 3.26602 67.8288 3.43828 68.1908 3.78401C68.6412 4.20738 68.8664 4.83939 68.8664 5.67885V9.1046Z" fill="white"/>
<path d="M72.4621 9.10458H71.1595V0.762207H72.4621V9.10458Z" fill="white"/>
<path d="M80.1388 6.19804C80.1388 7.07752 79.8812 7.79809 79.3661 8.36339C78.8262 8.94446 78.1095 9.23438 77.2174 9.23438C76.3552 9.23438 75.6697 8.95659 75.1595 8.39857C74.6494 7.84177 74.3944 7.13939 74.3944 6.29266C74.3944 5.40711 74.6569 4.68047 75.1844 4.11639C75.712 3.5523 76.4212 3.26965 77.3132 3.26965C78.1755 3.26965 78.866 3.54745 79.391 4.10426C79.8887 4.64529 80.1388 5.34403 80.1388 6.19804ZM78.7851 6.23928C78.7851 5.71159 78.6682 5.25911 78.4355 4.88184C78.163 4.42572 77.7723 4.19766 77.2672 4.19766C76.7421 4.19766 76.344 4.42572 76.0715 4.88184C75.8376 5.25911 75.7219 5.71887 75.7219 6.26233C75.7219 6.79002 75.8389 7.2425 76.0715 7.61977C76.354 8.07589 76.7471 8.30395 77.2548 8.30395C77.7524 8.30395 78.1419 8.07225 78.423 7.60764C78.6657 7.22309 78.7851 6.76697 78.7851 6.23928Z" fill="white"/>
<path d="M86.4493 9.10458H85.2785L85.1815 8.44588H85.1454C84.7448 8.97115 84.1737 9.23438 83.4321 9.23438C82.8785 9.23438 82.4306 9.06091 82.0934 8.7164C81.7873 8.40342 81.6343 8.01402 81.6343 7.55184C81.6343 6.8531 81.9329 6.32056 82.5338 5.95178C83.1335 5.583 83.9771 5.40225 85.0633 5.41075V5.304C85.0633 4.55067 84.6577 4.17462 83.8452 4.17462C83.2667 4.17462 82.7566 4.31655 82.3161 4.59798L82.0511 3.76338C82.5961 3.43463 83.2692 3.26965 84.063 3.26965C85.5958 3.26965 86.3647 4.05816 86.3647 5.63517V7.74108C86.3647 8.31244 86.3933 8.76735 86.4493 9.10458ZM85.0956 7.13939V6.25748C83.6573 6.23322 82.9382 6.61776 82.9382 7.40991C82.9382 7.70833 83.0203 7.93153 83.1883 8.08074C83.3563 8.22995 83.5703 8.30395 83.8253 8.30395C84.1115 8.30395 84.379 8.21539 84.6228 8.0395C84.8679 7.86239 85.0185 7.63797 85.0745 7.3626C85.0882 7.30073 85.0956 7.22552 85.0956 7.13939Z" fill="white"/>
<path d="M93.8584 9.10458H92.7014L92.6404 8.18628H92.6043C92.2348 8.88501 91.6052 9.23438 90.7206 9.23438C90.0139 9.23438 89.4254 8.96387 88.9588 8.42283C88.4923 7.88179 88.2596 7.17942 88.2596 6.31692C88.2596 5.39133 88.5122 4.64165 89.0198 4.06907C89.5113 3.53532 90.1134 3.26844 90.8301 3.26844C91.6177 3.26844 92.1688 3.52682 92.4824 4.04481H92.5072V0.762207H93.8124V7.56397C93.8124 8.12077 93.8273 8.6339 93.8584 9.10458ZM92.5072 6.69297V5.73949C92.5072 5.57451 92.4948 5.44107 92.4712 5.33917C92.3978 5.03347 92.2398 4.7763 91.9996 4.56886C91.757 4.36143 91.4646 4.2571 91.1274 4.2571C90.641 4.2571 90.2603 4.44513 89.9803 4.8224C89.7029 5.19967 89.5623 5.68126 89.5623 6.26961C89.5623 6.8349 89.6954 7.29345 89.9629 7.64646C90.2453 8.02251 90.626 8.21054 91.1026 8.21054C91.5306 8.21054 91.8727 8.05405 92.1328 7.73986C92.3841 7.44994 92.5072 7.10057 92.5072 6.69297Z" fill="white"/>
<path d="M105.01 6.19804C105.01 7.07752 104.753 7.79809 104.237 8.36339C103.697 8.94446 102.983 9.23438 102.089 9.23438C101.229 9.23438 100.543 8.95659 100.031 8.39857C99.5208 7.84177 99.2657 7.13939 99.2657 6.29266C99.2657 5.40711 99.5282 4.68047 100.056 4.11639C100.583 3.5523 101.292 3.26965 102.187 3.26965C103.047 3.26965 103.74 3.54745 104.262 4.10426C104.76 4.64529 105.01 5.34403 105.01 6.19804ZM103.659 6.23928C103.659 5.71159 103.542 5.25911 103.309 4.88184C103.034 4.42572 102.646 4.19766 102.139 4.19766C101.616 4.19766 101.218 4.42572 100.943 4.88184C100.709 5.25911 100.593 5.71887 100.593 6.26233C100.593 6.79002 100.71 7.2425 100.943 7.61977C101.225 8.07589 101.618 8.30395 102.126 8.30395C102.624 8.30395 103.016 8.07225 103.297 7.60764C103.537 7.22309 103.659 6.76697 103.659 6.23928Z" fill="white"/>
<path d="M112.021 9.1046H110.718V5.82927C110.718 4.81998 110.325 4.31534 109.535 4.31534C109.148 4.31534 108.836 4.45363 108.595 4.73143C108.353 5.00922 108.233 5.33676 108.233 5.7116V9.10338H106.927V5.02014C106.927 4.51793 106.912 3.97325 106.881 3.38369H108.026L108.087 4.27774H108.123C108.276 3.99994 108.503 3.77067 108.799 3.58749C109.153 3.37399 109.548 3.26602 109.982 3.26602C110.528 3.26602 110.983 3.43828 111.345 3.78401C111.797 4.20738 112.021 4.83939 112.021 5.67885V9.1046Z" fill="white"/>
<path d="M120.796 4.33839H119.361V7.11635C119.361 7.82236 119.616 8.17537 120.121 8.17537C120.355 8.17537 120.549 8.15596 120.702 8.11593L120.735 9.08033C120.478 9.17495 120.139 9.22226 119.723 9.22226C119.208 9.22226 118.807 9.06941 118.517 8.76371C118.226 8.45802 118.082 7.94367 118.082 7.22188V4.33839H117.224V3.38612H118.082V2.33801L119.359 1.96196V3.3849H120.795V4.33839H120.796Z" fill="white"/>
<path d="M127.699 9.10458H126.394V5.85352C126.394 4.82846 126.001 4.31533 125.213 4.31533C124.609 4.31533 124.195 4.61253 123.969 5.20694C123.93 5.33189 123.908 5.48474 123.908 5.66428V9.10337H122.605V0.762207H123.908V4.20858H123.933C124.344 3.58141 124.932 3.26844 125.695 3.26844C126.235 3.26844 126.681 3.44069 127.036 3.78642C127.478 4.21707 127.699 4.85758 127.699 5.70431V9.10458Z" fill="white"/>
<path d="M134.82 5.97482C134.82 6.20288 134.802 6.39455 134.771 6.55104H130.861C130.878 7.11633 131.065 7.54698 131.427 7.8454C131.758 8.11228 132.184 8.24572 132.707 8.24572C133.285 8.24572 133.813 8.15595 134.288 7.9752L134.492 8.85832C133.936 9.09366 133.282 9.21133 132.524 9.21133C131.616 9.21133 130.9 8.95052 130.383 8.42889C129.863 7.90727 129.605 7.20732 129.605 6.32904C129.605 5.46654 129.845 4.7484 130.329 4.17582C130.834 3.56443 131.518 3.25873 132.38 3.25873C133.223 3.25873 133.864 3.56443 134.297 4.17582C134.647 4.66105 134.82 5.26153 134.82 5.97482ZM133.575 5.64608C133.585 5.26881 133.499 4.9437 133.323 4.66955C133.096 4.31654 132.752 4.13943 132.285 4.13943C131.86 4.13943 131.513 4.31169 131.248 4.65742C131.031 4.93279 130.903 5.26153 130.861 5.64608H133.575Z" fill="white"/>
</svg>
