<svg width="141" height="52" viewBox="0 0 141 52" fill="none" xmlns="http://www.w3.org/2000/svg">
<g clip-path="url(#clip0_20005129_1522)">
<g clip-path="url(#clip1_20005129_1522)">
<g clip-path="url(#clip2_20005129_1522)">
<path d="M10.2 26L4.09998 16.3L23 4L22.5 14.7L10.2 26Z" fill="url(#paint0_linear_20005129_1522)"/>
<path d="M22.5 14.7L23 4L42.4 12.7L38.2999 30.1L12.2 34.2L10.2 26L22.5 14.7Z" fill="url(#paint1_linear_20005129_1522)"/>
<path d="M31.2001 48L12.3 34.2L38.4001 30.1L43 34.7L31.2001 48Z" fill="url(#paint2_linear_20005129_1522)"/>
<path d="M38.3 30.1L42.9001 34.7L47 21.9L42.4001 12.7L38.3 30.1Z" fill="url(#paint3_linear_20005129_1522)"/>
<path d="M12.3 34.2L31.2 48L12.3 45.4L0 30.6L12.3 34.2Z" fill="url(#paint4_linear_20005129_1522)"/>
<path d="M4.1 16.3L0 30.6L12.3 34.2L10.3 26L4.1 16.3Z" fill="url(#paint5_linear_20005129_1522)"/>
<path d="M31.2001 48L12.3 34.2L38.4001 30.1L43 34.7L31.2001 48Z" fill="black" fill-opacity="0.17"/>
<path d="M38.3 30.1L42.9001 34.7L47 21.9L42.4001 12.7L38.3 30.1Z" fill="black" fill-opacity="0.1"/>
<path d="M12.3 34.2L31.2 48L12.3 45.4L0 30.6L12.3 34.2Z" fill="black" fill-opacity="0.23"/>
<path d="M4.1 16.3L0 30.6L12.3 34.2L10.3 26L4.1 16.3Z" fill="#C0C0C0" fill-opacity="0.05"/>
<path d="M10.2 26L4.09998 16.3L23 4L22.5 14.7L10.2 26Z" fill="white" fill-opacity="0.15"/>
<path fill-rule="evenodd" clip-rule="evenodd" d="M10.2 26L22.5 14.7L23 4L4.09998 16.3L10.2 26ZM10.3 25.5L22.2 14.6L22.7 4.6L4.49998 16.4L10.3 25.5Z" fill="white" fill-opacity="0.15"/>
<path fill-rule="evenodd" clip-rule="evenodd" d="M22.8 14.9L10.6 26.1L12.5 33.8L38.0999 29.8L42.0999 12.9L23.3 4.5L22.8 14.9ZM22.5 14.7L10.2 26L12.2 34.2L38.2999 30.1L42.4 12.7L23 4L22.5 14.7Z" fill="white" fill-opacity="0.15"/>
<path fill-rule="evenodd" clip-rule="evenodd" d="M31.1 47.6L42.5 34.7L38.2 30.4L13 34.4L31.1 47.6ZM31.2 48L42.9 34.7L38.2999 30.1L12.2 34.2L31.2 48Z" fill="white" fill-opacity="0.15"/>
<path fill-rule="evenodd" clip-rule="evenodd" d="M42.9001 34.7L47 21.9L42.4001 12.7L38.3 30.1L42.9001 34.7ZM38.7001 30L42.8 34.1L46.7001 21.9L42.5 13.6L38.7001 30Z" fill="white" fill-opacity="0.15"/>
<path fill-rule="evenodd" clip-rule="evenodd" d="M12.1 34.5L0.9 31.2L12.4 45.2L30 47.5L12.1 34.5ZM12.3 34.2L0 30.6L12.3 45.4L31.2 48L12.3 34.2Z" fill="white" fill-opacity="0.15"/>
<path fill-rule="evenodd" clip-rule="evenodd" d="M0.4 30.4L11.9 33.7L10 26.1L4.2 17L0.4 30.4ZM0 30.6L12.3 34.2L10.3 26L4.2 16.3L0 30.6Z" fill="white" fill-opacity="0.15"/>
<path d="M23.7 23H27.2C27.1 19.9 24.6 17.8 20.8 17.8C17 17.8 14.3 19.9 14.3 23C14.3 25.5 16.1 27 19 27.7L20.9 28.2C22.8 28.7 23.8 29.2 23.8 30.3C23.8 31.6 22.6 32.4 20.8 32.4C18.9 32.4 17.6 31.5 17.4 29.8H13.9C14 33.5 16.6 35.4 20.8 35.4C25 35.4 27.4 33.4 27.4 30.3C27.4 27.4 25.2 25.9 22.3 25.3L20.8 24.9C19.2 24.6 18 24 18 22.8C18 21.7 19 20.9 20.7 20.9C22.5 20.9 23.6 21.7 23.7 23Z" fill="white"/>
<path d="M32.5 23.3H29.3V35.2H32.5V23.3Z" fill="white"/>
<path d="M31.3 13.9H30.1L28.6 14.8V16L30 15.1V19.9H31.3V13.9Z" fill="white"/>
<path d="M32.7 18.8H35.5999V19.8H36.7999V18.8H37.5V17.8H36.7999V13.9H35.2L32.7 17.8V18.8ZM35.5999 17.8H34L35.5999 15.3V17.8Z" fill="white"/>
</g>
</g>
</g>
<path d="M61.1136 34.062C60.0043 34.062 59.0024 33.8679 58.108 33.4796C57.2205 33.0844 56.4891 32.5228 55.9136 31.7948C55.3451 31.0599 54.9845 30.1863 54.832 29.174L57.7856 28.7372C57.9936 29.5969 58.4235 30.2591 59.0752 30.7236C59.7269 31.1881 60.4688 31.4204 61.3008 31.4204C61.7653 31.4204 62.216 31.3476 62.6528 31.202C63.0896 31.0564 63.4467 30.8415 63.724 30.5572C64.0083 30.2729 64.1504 29.9228 64.1504 29.5068C64.1504 29.3543 64.1261 29.2087 64.0776 29.07C64.036 28.9244 63.9632 28.7892 63.8592 28.6644C63.7552 28.5396 63.6061 28.4217 63.412 28.3108C63.2248 28.1999 62.9856 28.0993 62.6944 28.0092L58.8048 26.8652C58.5136 26.782 58.1739 26.6641 57.7856 26.5116C57.4043 26.3591 57.0333 26.1407 56.6728 25.8564C56.3123 25.5721 56.0107 25.1977 55.768 24.7332C55.5323 24.2617 55.4144 23.6689 55.4144 22.9548C55.4144 21.9495 55.6675 21.114 56.1736 20.4484C56.6797 19.7828 57.3557 19.2871 58.2016 18.9612C59.0475 18.6353 59.9835 18.4759 61.0096 18.4828C62.0427 18.4967 62.9648 18.6735 63.776 19.0132C64.5872 19.3529 65.2667 19.8487 65.8144 20.5004C66.3621 21.1452 66.7573 21.9356 67 22.8716L63.9424 23.3916C63.8315 22.9063 63.6269 22.4972 63.3288 22.1644C63.0307 21.8316 62.6736 21.5785 62.2576 21.4052C61.8485 21.2319 61.4187 21.1383 60.968 21.1244C60.5243 21.1105 60.1048 21.1729 59.7096 21.3116C59.3213 21.4433 59.0024 21.6375 58.7528 21.894C58.5101 22.1505 58.3888 22.4556 58.3888 22.8092C58.3888 23.1351 58.4893 23.402 58.6904 23.61C58.8915 23.8111 59.1445 23.974 59.4496 24.0988C59.7547 24.2236 60.0667 24.3276 60.3856 24.4108L62.9856 25.118C63.3739 25.222 63.8037 25.3607 64.2752 25.534C64.7467 25.7004 65.1973 25.9361 65.6272 26.2412C66.064 26.5393 66.4211 26.9345 66.6984 27.4268C66.9827 27.9191 67.1248 28.5431 67.1248 29.2988C67.1248 30.1031 66.9549 30.8068 66.6152 31.41C66.2824 32.0063 65.8317 32.502 65.2632 32.8972C64.6947 33.2855 64.0499 33.5767 63.3288 33.7708C62.6147 33.9649 61.8763 34.062 61.1136 34.062ZM69.6187 20.958V18.462H72.4475V20.958H69.6187ZM69.6187 33.75V22.518H72.4475V33.75H69.6187ZM75.7734 33.75V18.462H78.6022V33.75H75.7734ZM81.9281 20.958V18.462H84.7569V20.958H81.9281ZM81.9281 33.75V22.518H84.7569V33.75H81.9281ZM92.8252 34.062C91.6604 34.062 90.662 33.802 89.83 33.282C88.998 32.762 88.3601 32.0548 87.9164 31.1604C87.4726 30.266 87.2508 29.2572 87.2508 28.134C87.2508 26.9969 87.4796 25.9812 87.9372 25.0868C88.4017 24.1924 89.0534 23.4887 89.8924 22.9756C90.7313 22.4625 91.7228 22.206 92.8668 22.206C94.191 22.206 95.3004 22.5423 96.1948 23.2148C97.0961 23.8804 97.6716 24.7921 97.9212 25.95L95.0924 26.6988C94.926 26.1164 94.6348 25.6623 94.2188 25.3364C93.8097 25.0105 93.3452 24.8476 92.8252 24.8476C92.2289 24.8476 91.7401 24.9932 91.3588 25.2844C90.9774 25.5687 90.6966 25.9604 90.5164 26.4596C90.3361 26.9519 90.246 27.51 90.246 28.134C90.246 29.1116 90.4609 29.9055 90.8908 30.5156C91.3276 31.1188 91.9724 31.4204 92.8252 31.4204C93.463 31.4204 93.9484 31.2748 94.2812 30.9836C94.614 30.6924 94.8636 30.2764 95.03 29.7356L97.9212 30.3388C97.6022 31.5313 96.999 32.45 96.1116 33.0948C95.2241 33.7396 94.1286 34.062 92.8252 34.062ZM104.751 34.062C103.621 34.062 102.629 33.8089 101.777 33.3028C100.924 32.7967 100.258 32.0999 99.7798 31.2124C99.3084 30.318 99.0726 29.2919 99.0726 28.134C99.0726 26.9623 99.3153 25.9327 99.8006 25.0452C100.286 24.1508 100.955 23.454 101.808 22.9548C102.661 22.4556 103.642 22.206 104.751 22.206C105.881 22.206 106.873 22.4591 107.725 22.9652C108.585 23.4713 109.254 24.1716 109.733 25.066C110.211 25.9535 110.45 26.9761 110.45 28.134C110.45 29.2988 110.208 30.3284 109.722 31.2228C109.244 32.1103 108.575 32.8071 107.715 33.3132C106.862 33.8124 105.874 34.062 104.751 34.062ZM104.751 31.4204C105.659 31.4204 106.335 31.1153 106.779 30.5052C107.23 29.8881 107.455 29.0977 107.455 28.134C107.455 27.1356 107.226 26.3383 106.769 25.742C106.318 25.1457 105.645 24.8476 104.751 24.8476C104.134 24.8476 103.628 24.9863 103.233 25.2636C102.837 25.5409 102.543 25.9257 102.349 26.418C102.161 26.9103 102.068 27.4823 102.068 28.134C102.068 29.1393 102.293 29.9401 102.744 30.5364C103.201 31.1257 103.87 31.4204 104.751 31.4204ZM120.392 33.75V28.446C120.392 28.1895 120.378 27.8636 120.35 27.4684C120.322 27.0663 120.236 26.6641 120.09 26.262C119.944 25.8599 119.705 25.5236 119.372 25.2532C119.047 24.9828 118.582 24.8476 117.979 24.8476C117.736 24.8476 117.476 24.8857 117.199 24.962C116.922 25.0383 116.662 25.1873 116.419 25.4092C116.176 25.6241 115.975 25.9431 115.816 26.366C115.663 26.7889 115.587 27.3505 115.587 28.0508L113.964 27.2812C113.964 26.3937 114.145 25.5617 114.505 24.7852C114.866 24.0087 115.407 23.3812 116.128 22.9028C116.856 22.4244 117.771 22.1852 118.873 22.1852C119.754 22.1852 120.471 22.3343 121.026 22.6324C121.581 22.9305 122.011 23.3084 122.316 23.766C122.628 24.2236 122.85 24.702 122.981 25.2012C123.113 25.6935 123.193 26.1441 123.22 26.5532C123.248 26.9623 123.262 27.2604 123.262 27.4476V33.75H120.392ZM112.716 33.75V22.518H115.233V26.2412H115.587V33.75H112.716Z" fill="white"/>
<defs>
<linearGradient id="paint0_linear_20005129_1522" x1="-2.43962e-05" y1="15" x2="47" y2="15" gradientUnits="userSpaceOnUse">
<stop stop-color="#6366F1"/>
<stop offset="0.5" stop-color="#8B5CF6"/>
<stop offset="1" stop-color="#D946EF"/>
</linearGradient>
<linearGradient id="paint1_linear_20005129_1522" x1="-4.86304e-05" y1="19.1" x2="47" y2="19.1" gradientUnits="userSpaceOnUse">
<stop stop-color="#6366F1"/>
<stop offset="0.5" stop-color="#8B5CF6"/>
<stop offset="1" stop-color="#D946EF"/>
</linearGradient>
<linearGradient id="paint2_linear_20005129_1522" x1="4.91977e-05" y1="39.05" x2="47" y2="39.05" gradientUnits="userSpaceOnUse">
<stop stop-color="#6366F1"/>
<stop offset="0.5" stop-color="#8B5CF6"/>
<stop offset="1" stop-color="#D946EF"/>
</linearGradient>
<linearGradient id="paint3_linear_20005129_1522" x1="4.58639e-05" y1="23.7" x2="47.0001" y2="23.7" gradientUnits="userSpaceOnUse">
<stop stop-color="#6366F1"/>
<stop offset="0.5" stop-color="#8B5CF6"/>
<stop offset="1" stop-color="#D946EF"/>
</linearGradient>
<linearGradient id="paint4_linear_20005129_1522" x1="0" y1="39.3" x2="47" y2="39.3" gradientUnits="userSpaceOnUse">
<stop stop-color="#6366F1"/>
<stop offset="0.5" stop-color="#8B5CF6"/>
<stop offset="1" stop-color="#D946EF"/>
</linearGradient>
<linearGradient id="paint5_linear_20005129_1522" x1="0" y1="25.25" x2="47" y2="25.25" gradientUnits="userSpaceOnUse">
<stop stop-color="#6366F1"/>
<stop offset="0.5" stop-color="#8B5CF6"/>
<stop offset="1" stop-color="#D946EF"/>
</linearGradient>
<clipPath id="clip0_20005129_1522">
<rect width="47" height="44" fill="white" transform="translate(0 4)"/>
</clipPath>
<clipPath id="clip1_20005129_1522">
<rect width="47" height="44" fill="white" transform="translate(0 4)"/>
</clipPath>
<clipPath id="clip2_20005129_1522">
<rect width="47" height="44" fill="white" transform="translate(0 4)"/>
</clipPath>
</defs>
</svg>
