<svg width="68" height="16" viewBox="0 0 68 16" fill="none" xmlns="http://www.w3.org/2000/svg">
<path d="M6.67997 15.6486C7.43036 15.6486 8.15687 15.5531 8.85951 15.3621C9.56896 15.1711 10.2034 14.8846 10.7628 14.5026C11.3221 14.1137 11.7656 13.626 12.093 13.0393C12.4273 12.4458 12.5944 11.7534 12.5944 10.9621C12.5944 10.2186 12.4545 9.60461 12.1749 9.12027C11.902 8.63592 11.5507 8.24709 11.1209 7.95375C10.698 7.6536 10.2545 7.42166 9.79067 7.25794C9.32679 7.0874 8.90385 6.95096 8.52183 6.84864L5.96369 6.15282C5.6499 6.07096 5.34292 5.96864 5.04277 5.84585C4.74261 5.72306 4.49362 5.56275 4.29579 5.36492C4.09796 5.16027 3.99904 4.89763 3.99904 4.57701C3.99904 4.2291 4.11842 3.92895 4.35718 3.67655C4.60277 3.42414 4.91656 3.23314 5.29858 3.10352C5.68742 2.96709 6.10013 2.90569 6.53672 2.91934C7.20524 2.9398 7.8192 3.13763 8.37858 3.51283C8.93796 3.88802 9.29951 4.43375 9.46323 5.15003L12.4716 4.63841C12.1169 3.2536 11.4279 2.19283 10.4046 1.45608C9.38137 0.719339 8.10571 0.340735 6.57765 0.32027C5.56804 0.313448 4.64711 0.470347 3.81486 0.790967C2.98261 1.11159 2.3175 1.59934 1.81951 2.25422C1.32153 2.9091 1.07253 3.73112 1.07253 4.72027C1.07253 5.4229 1.1885 6.00616 1.42044 6.47003C1.6592 6.92709 1.95594 7.29546 2.31067 7.57515C2.6654 7.85484 3.03036 8.06972 3.40556 8.2198C3.78757 8.36988 4.12183 8.48585 4.40835 8.56771L8.23532 9.69329C8.80834 9.86383 9.19036 10.0787 9.38137 10.3379C9.57238 10.5903 9.66788 10.8666 9.66788 11.1668C9.66788 11.5761 9.52803 11.9206 9.24834 12.2003C8.97548 12.48 8.62416 12.6914 8.19439 12.8347C7.76462 12.9779 7.32121 13.0496 6.86416 13.0496C6.04556 13.0496 5.31563 12.821 4.67439 12.364C4.03315 11.9069 3.61021 11.2555 3.40556 10.4096L0.499512 10.8393C0.649589 11.8353 1.00432 12.6948 1.5637 13.4179C2.1299 14.1342 2.84959 14.6868 3.72277 15.0756C4.60277 15.4576 5.5885 15.6486 6.67997 15.6486Z" fill="white"/>
<path d="M15.0481 2.75562H17.8314V0.299805H15.0481V2.75562ZM15.0481 15.3417H17.8314V4.2905H15.0481V15.3417Z" fill="white"/>
<path d="M21.1037 15.3417H23.887V0.299805H21.1037V15.3417Z" fill="white"/>
<path d="M27.1593 2.75562H29.9426V0.299805H27.1593V2.75562ZM27.1593 15.3417H29.9426V4.2905H27.1593V15.3417Z" fill="white"/>
<path d="M37.8809 15.6486C39.1634 15.6486 40.2413 15.3314 41.1144 14.697C41.9876 14.0626 42.5811 13.1587 42.8949 11.9854L40.0502 11.3919C39.8865 11.924 39.6409 12.3333 39.3135 12.6198C38.9861 12.9063 38.5085 13.0496 37.8809 13.0496C37.0419 13.0496 36.4075 12.7528 35.9777 12.1593C35.5547 11.559 35.3433 10.7779 35.3433 9.81608C35.3433 8.89515 35.5445 8.12771 35.947 7.51375C36.3563 6.89298 37.0009 6.58259 37.8809 6.58259C38.3926 6.58259 38.8496 6.7429 39.2521 7.06352C39.6614 7.38414 39.9479 7.83096 40.1116 8.40399L42.8949 7.66724C42.6493 6.52802 42.0831 5.63096 41.1963 4.97608C40.3163 4.31438 39.2248 3.98352 37.9219 3.98352C36.7963 3.98352 35.8208 4.23593 34.9954 4.74073C34.1699 5.24554 33.5287 5.93794 33.0716 6.81794C32.6214 7.69794 32.3963 8.69732 32.3963 9.81608C32.3963 10.9212 32.6146 11.9138 33.0512 12.7938C33.4878 13.6737 34.1154 14.3696 34.934 14.8812C35.7526 15.3928 36.7349 15.6486 37.8809 15.6486Z" fill="white"/>
<path d="M49.6148 15.6486C50.7199 15.6486 51.692 15.4031 52.5311 14.9119C53.377 14.4139 54.0353 13.7283 54.506 12.8551C54.9835 11.9751 55.2222 10.9621 55.2222 9.81608C55.2222 8.67685 54.9869 7.67065 54.5162 6.79747C54.0455 5.91748 53.3872 5.22848 52.5413 4.7305C51.7022 4.23251 50.7267 3.98352 49.6148 3.98352C48.5233 3.98352 47.5581 4.2291 46.719 4.72027C45.8799 5.21143 45.2216 5.89701 44.7441 6.77701C44.2666 7.65019 44.0278 8.66321 44.0278 9.81608C44.0278 10.9553 44.2598 11.9649 44.7236 12.8449C45.1943 13.7181 45.8492 14.4037 46.6883 14.9017C47.5274 15.3996 48.5029 15.6486 49.6148 15.6486ZM49.6148 13.0496C48.7485 13.0496 48.0902 12.7596 47.6399 12.1798C47.1965 11.5931 46.9748 10.8052 46.9748 9.81608C46.9748 8.85422 47.1863 8.07654 47.6092 7.48306C48.039 6.88275 48.7075 6.58259 49.6148 6.58259C50.4948 6.58259 51.1565 6.87592 51.5999 7.46259C52.0502 8.04926 52.2753 8.83375 52.2753 9.81608C52.2753 10.7643 52.0536 11.542 51.6101 12.1491C51.1736 12.7494 50.5084 13.0496 49.6148 13.0496Z" fill="white"/>
<path d="M57.452 15.3417H60.2762V9.73422C60.2762 9.04522 60.3512 8.49267 60.5013 8.07654C60.6582 7.66042 60.856 7.34662 61.0948 7.13515C61.3335 6.91685 61.5893 6.77019 61.8622 6.69515C62.1351 6.62011 62.3909 6.58259 62.6297 6.58259C63.2231 6.58259 63.6802 6.71561 64.0008 6.98166C64.3283 7.24771 64.5636 7.57856 64.7069 7.97422C64.8501 8.36988 64.9354 8.76554 64.9627 9.16119C64.99 9.55003 65.0036 9.87065 65.0036 10.1231V15.3417H67.8278V9.14073C67.8278 8.95654 67.8141 8.66321 67.7869 8.26073C67.7596 7.85825 67.6811 7.41484 67.5515 6.9305C67.4219 6.43934 67.2036 5.96864 66.8966 5.51841C66.5965 5.06817 66.1735 4.69639 65.6278 4.40306C65.0821 4.10972 64.376 3.96306 63.5097 3.96306C62.7115 3.96306 62.0157 4.09608 61.4222 4.36213C60.8287 4.62817 60.3307 4.9829 59.9283 5.42631V4.2905H57.452V15.3417Z" fill="white"/>
</svg>
