<svg width="78" height="78" viewBox="0 0 78 78" fill="none" xmlns="http://www.w3.org/2000/svg">
<g clip-path="url(#clip0_4632_11005)">
<path d="M47.176 65C47.176 72.1798 41.3554 77.9999 34.1756 77.9999C26.9958 77.9999 21.1758 72.1798 21.1758 65C21.1758 57.8202 26.9958 51.9996 34.1756 51.9996C41.3554 51.9996 47.176 57.8202 47.176 65Z" fill="#FFBA08"/>
<path opacity="0.3" d="M47.176 65.0004C47.176 72.1802 41.3554 78.0002 34.1756 78.0002C26.9958 78.0002 21.1758 72.1802 21.1758 65.0004C21.1758 57.8206 26.9958 52 34.1756 52C41.3554 52 47.176 57.8206 47.176 65.0004Z" fill="#EF4444"/>
<path d="M56.9516 38.7437C45.934 37.1703 37.426 27.6964 37.426 16.2504C37.426 13 38.121 9.9162 39.3529 7.11748C37.689 6.72769 35.9603 6.50037 34.1756 6.50037C21.631 6.50037 11.4258 16.705 11.4258 29.2502V38.3111C11.4258 44.7428 8.60802 50.8139 3.66458 54.9933C2.4006 56.0722 1.67578 57.6486 1.67578 59.3125C1.67578 62.4492 4.22694 65.0004 7.36308 65.0004H60.9881C64.1248 65.0004 66.676 62.4492 66.676 59.3125C66.676 57.6486 65.9512 56.0722 64.6544 54.9641C59.8574 50.905 57.0753 45.0124 56.9516 38.7437Z" fill="url(#paint0_linear_4632_11005)"/>
<path d="M76.4262 16.2502C76.4262 25.2248 69.1506 32.4998 60.176 32.4998C51.2014 32.4998 43.9258 25.2248 43.9258 16.2502C43.9258 7.2756 51.2014 0 60.176 0C69.1506 0 76.4262 7.2756 76.4262 16.2502Z" fill="url(#paint1_linear_4632_11005)"/>
</g>
<defs>
<linearGradient id="paint0_linear_4632_11005" x1="-2.5" y1="54.0004" x2="59.5" y2="19.0004" gradientUnits="userSpaceOnUse">
<stop stop-color="#FFBA08"/>
<stop offset="1" stop-color="#FFDB7E"/>
</linearGradient>
<linearGradient id="paint1_linear_4632_11005" x1="42.5" y1="37.5" x2="60" y2="-1.5" gradientUnits="userSpaceOnUse">
<stop stop-color="#7A1CD0"/>
<stop offset="1" stop-color="#6366F1"/>
</linearGradient>
<clipPath id="clip0_4632_11005">
<rect width="78" height="78" fill="white"/>
</clipPath>
</defs>
</svg>
