<svg width="28" height="29" viewBox="0 0 28 29" fill="none" xmlns="http://www.w3.org/2000/svg">
<g clip-path="url(#clip0_20005128_14656)">
<g clip-path="url(#clip1_20005128_14656)">
<path d="M22.531 16.4629C23.135 16.4629 23.625 16.9529 23.625 17.5569V18.8699C23.625 19.4739 23.135 19.9639 22.531 19.9639H20.015C19.411 19.9639 18.921 19.4739 18.921 18.8699V17.5579C18.921 16.9539 19.411 16.4639 20.015 16.4639L22.531 16.4629ZM25.812 14.4939V11.2129H2.188V19.9559C2.18853 20.5361 2.41922 21.0923 2.82944 21.5025C3.23965 21.9127 3.79587 22.1434 4.376 22.1439H23.626C24.2061 22.1434 24.7624 21.9127 25.1726 21.5025C25.5828 21.0923 25.8135 20.5361 25.814 19.9559C25.814 19.3519 26.304 18.8619 26.908 18.8619C27.512 18.8619 28 19.3519 28 19.9559C27.9987 21.1158 27.5373 22.2279 26.7171 23.0481C25.8969 23.8682 24.7849 24.3296 23.625 24.3309H4.375C3.21508 24.3296 2.10305 23.8682 1.28287 23.0481C0.462685 22.2279 0.00132335 21.1158 0 19.9559L0 8.14392C0.00132335 6.984 0.462685 5.87198 1.28287 5.05179C2.10305 4.23161 3.21508 3.77024 4.375 3.76892H23.625C24.7849 3.77024 25.8969 4.23161 26.7171 5.05179C27.5373 5.87198 27.9987 6.984 28 8.14392V14.4939C28 15.0979 27.51 15.5879 26.906 15.5879C26.302 15.5879 25.812 15.0979 25.812 14.4939ZM25.812 9.02492V8.14292C25.8112 7.56314 25.5805 7.00733 25.1706 6.59736C24.7606 6.18739 24.2048 5.95671 23.625 5.95592H4.375C3.79504 5.95672 3.23908 6.18752 2.82908 6.59771C2.41908 7.0079 2.18853 7.56396 2.188 8.14392V9.02592H25.813L25.812 9.02492ZM5.469 13.3999C4.865 13.3999 4.375 13.8899 4.375 14.4939C4.375 15.0979 4.865 15.5879 5.469 15.5879H14.492C15.096 15.5879 15.586 15.0979 15.586 14.4939C15.586 13.8899 15.096 13.3999 14.492 13.3999H5.469Z" fill="url(#paint0_linear_20005128_14656)"/>
</g>
</g>
<defs>
<linearGradient id="paint0_linear_20005128_14656" x1="0" y1="14.0989" x2="28" y2="14.0989" gradientUnits="userSpaceOnUse">
<stop stop-color="#6366F1"/>
<stop offset="0.5" stop-color="#8B5CF6"/>
<stop offset="1" stop-color="#D946EF"/>
</linearGradient>
<clipPath id="clip0_20005128_14656">
<rect width="28" height="28" fill="white" transform="translate(0 0.0499268)"/>
</clipPath>
<clipPath id="clip1_20005128_14656">
<rect width="28" height="28" fill="white" transform="translate(0 0.0499268)"/>
</clipPath>
</defs>
</svg>
