<svg width="125" height="34" viewBox="0 0 125 34" fill="none" xmlns="http://www.w3.org/2000/svg">
<g clip-path="url(#clip0_20005128_14153)">
<g clip-path="url(#clip1_20005128_14153)">
<g clip-path="url(#clip2_20005128_14153)">
<path d="M20.5115 16.1113C20.5115 12.5569 23.5191 10.8253 23.6103 10.7341C21.8786 8.27337 19.2356 7.99996 18.3242 7.90882C16.1369 7.6354 13.9495 9.18476 12.7647 9.18476C11.5799 9.18476 9.84828 7.90882 7.93437 7.90882C5.47362 7.90882 3.19514 9.2759 2.01034 11.4632C-0.541551 15.8379 1.37237 22.2176 3.83312 25.6809C5.10906 27.4125 6.47614 29.3265 8.39006 29.2353C10.2128 29.1442 10.9419 28.0505 13.1293 28.0505C15.3166 28.0505 15.9546 29.2353 17.8685 29.1442C19.8736 29.1442 21.0584 27.4125 22.2432 25.6809C23.7014 23.6758 24.2482 21.7619 24.2482 21.6708C24.3394 21.7619 20.5115 20.3948 20.5115 16.1113Z" fill="#3E4265"/>
<path d="M16.866 5.63034C17.8685 4.44553 18.5065 2.80503 18.3242 1.07339C16.866 1.16453 15.1343 2.07592 14.0406 3.26073C13.1293 4.26326 12.309 5.99489 12.4913 7.6354C14.1318 7.72653 15.8634 6.81515 16.866 5.63034Z" fill="#3E4265"/>
<path d="M47.1241 29.053H44.5723L43.2052 24.7695H38.1925L36.8254 29.053H34.2736L39.1039 14.3797H42.1115L47.1241 29.053ZM42.6583 22.9467L41.3824 19.1189C41.2913 18.7543 41.0178 17.8429 40.6533 16.3847C40.471 17.0227 40.2887 17.9341 39.9242 19.1189L38.6482 22.9467H42.6583Z" fill="#3E4265"/>
<path d="M59.6101 23.6759C59.6101 25.4986 59.1544 26.8657 58.1519 27.9594C57.2405 28.8708 56.1468 29.3265 54.7798 29.3265C53.3215 29.3265 52.319 28.7796 51.681 27.7771V33.3366H49.2203V21.9442C49.2203 20.8505 49.2203 19.6657 49.1292 18.4809H51.2253L51.3165 20.1214C52.1367 18.8455 53.3215 18.2075 54.962 18.2075C56.238 18.2075 57.3317 18.6632 58.1519 19.6657C59.1544 20.7594 59.6101 22.0354 59.6101 23.6759ZM57.1494 23.767C57.1494 22.7645 56.876 21.8531 56.4203 21.2151C55.8734 20.486 55.2355 20.2126 54.3241 20.2126C53.6861 20.2126 53.2304 20.3949 52.6836 20.7594C52.2279 21.124 51.8633 21.6708 51.7722 22.3088C51.681 22.5822 51.681 22.8556 51.681 23.0379V24.7695C51.681 25.4986 51.9545 26.2277 52.4101 26.6834C52.8658 27.2303 53.5038 27.5037 54.3241 27.5037C55.2355 27.5037 55.9646 27.1391 56.4203 26.5012C56.876 25.772 57.1494 24.8607 57.1494 23.767Z" fill="#3E4265"/>
<path d="M72.0962 23.6759C72.0962 25.4986 71.6405 26.8657 70.638 27.9594C69.7266 28.8708 68.6329 29.3265 67.2658 29.3265C65.8076 29.3265 64.8051 28.7796 64.1671 27.7771V33.3366H61.7064V21.9442C61.7064 20.8505 61.7064 19.6657 61.6152 18.4809H63.7114L63.8026 20.1214C64.6228 18.8455 65.8076 18.2075 67.4481 18.2075C68.7241 18.2075 69.8177 18.6632 70.638 19.6657C71.6405 20.7594 72.0962 22.0354 72.0962 23.6759ZM69.6355 23.767C69.6355 22.7645 69.362 21.8531 68.9063 21.2151C68.3595 20.486 67.7215 20.2126 66.8102 20.2126C66.1722 20.2126 65.7165 20.3949 65.1697 20.7594C64.714 21.124 64.3494 21.6708 64.2583 22.3088C64.1671 22.5822 64.1671 22.8556 64.1671 23.0379V24.7695C64.1671 25.4986 64.4405 26.2277 64.8962 26.6834C65.3519 27.2303 65.9899 27.5037 66.8102 27.5037C67.7215 27.5037 68.4507 27.1391 68.9063 26.5012C69.362 25.772 69.6355 24.8607 69.6355 23.767Z" fill="#3E4265"/>
<path d="M86.1316 24.9518C86.1316 26.2277 85.6759 27.2303 84.7645 28.0505C83.762 28.8708 82.3949 29.3265 80.6632 29.3265C79.0227 29.3265 77.7468 29.0531 76.7443 28.4151L77.2911 26.41C78.3848 27.048 79.4784 27.3214 80.7544 27.3214C81.6658 27.3214 82.3949 27.1391 82.8506 26.6834C83.3974 26.3189 83.5797 25.7721 83.5797 25.0429C83.5797 24.405 83.3974 23.9493 82.9417 23.4936C82.486 23.129 81.848 22.6733 80.8455 22.3999C78.2025 21.3974 76.9265 20.0303 76.9265 18.2075C76.9265 17.0227 77.3822 16.0202 78.2936 15.1999C79.205 14.4708 80.481 14.0151 82.0303 14.0151C83.3974 14.0151 84.5822 14.2886 85.4936 14.7442L84.8556 16.6582C84.0354 16.2025 83.0328 16.0202 81.9392 16.0202C81.1189 16.0202 80.3898 16.2025 79.9341 16.6582C79.5696 17.0227 79.2961 17.4784 79.2961 18.0252C79.2961 18.5721 79.5696 19.1189 80.0253 19.4835C80.3898 19.848 81.1189 20.2126 82.2126 20.5771C83.4885 21.124 84.4911 21.6708 85.0379 22.3999C85.767 23.0379 86.1316 23.9493 86.1316 24.9518Z" fill="#3E4265"/>
<path d="M94.0606 20.2126H91.4176V25.4075C91.4176 26.6834 91.8733 27.4125 92.7847 27.4125C93.2404 27.4125 93.6049 27.4125 93.8783 27.3214L93.9695 29.1442C93.5138 29.3264 92.8758 29.4176 92.0556 29.4176C91.1442 29.4176 90.3239 29.1442 89.7771 28.5973C89.2302 28.0505 88.9568 27.048 88.9568 25.772V20.3948H87.4075V18.6632H88.9568V16.7493L91.3264 16.0202V18.6632H93.9695V20.2126H94.0606Z" fill="#3E4265"/>
<path d="M106.091 23.6758C106.091 25.3163 105.635 26.6834 104.633 27.686C103.63 28.7796 102.263 29.3264 100.623 29.3264C98.9821 29.3264 97.7973 28.7796 96.7948 27.7771C95.8834 26.7746 95.3365 25.4075 95.3365 23.8581C95.3365 22.2176 95.7922 20.8505 96.7948 19.848C97.7973 18.8455 99.0732 18.2986 100.714 18.2986C102.354 18.2986 103.63 18.8455 104.542 19.848C105.635 20.7594 106.091 22.1265 106.091 23.6758ZM103.63 23.767C103.63 22.7645 103.448 21.9442 102.992 21.2151C102.445 20.3948 101.716 19.9391 100.805 19.9391C99.8024 19.9391 99.0732 20.3948 98.6176 21.2151C98.1619 21.9442 97.9796 22.7645 97.9796 23.767C97.9796 24.7695 98.1619 25.5898 98.6176 26.3189C99.1644 27.1391 99.8935 27.5948 100.805 27.5948C101.716 27.5948 102.445 27.1391 102.992 26.3189C103.357 25.5898 103.63 24.7695 103.63 23.767Z" fill="#3E4265"/>
<path d="M113.929 20.5771C113.655 20.5771 113.473 20.486 113.2 20.486C112.38 20.486 111.65 20.7594 111.195 21.3974C110.83 21.9442 110.557 22.6733 110.557 23.4936V29.053H108.096V21.7619C108.096 20.5771 108.096 19.3923 108.005 18.3898H110.101L110.192 20.3949H110.283C110.557 19.6657 110.921 19.1189 111.468 18.7544C112.015 18.3898 112.562 18.2075 113.2 18.2075C113.382 18.2075 113.655 18.2075 113.838 18.2075V20.5771H113.929Z" fill="#3E4265"/>
<path d="M124.774 23.3113C124.774 23.767 124.774 24.1315 124.683 24.4049H117.392C117.392 25.4075 117.757 26.2277 118.486 26.7746C119.124 27.2303 119.853 27.5037 120.855 27.5037C121.949 27.5037 122.952 27.3214 123.772 26.9568L124.136 28.5973C123.134 29.053 121.858 29.2353 120.491 29.2353C118.759 29.2353 117.483 28.7796 116.481 27.7771C115.478 26.7746 115.023 25.4986 115.023 23.8581C115.023 22.2176 115.478 20.9417 116.39 19.848C117.301 18.7543 118.577 18.1164 120.217 18.1164C121.767 18.1164 122.952 18.6632 123.772 19.848C124.41 20.8505 124.774 21.9442 124.774 23.3113ZM122.496 22.6733C122.496 21.9442 122.314 21.3974 122.04 20.8505C121.585 20.2126 120.947 19.848 120.126 19.848C119.306 19.848 118.668 20.2126 118.212 20.8505C117.848 21.3974 117.574 21.9442 117.483 22.6733H122.496Z" fill="#3E4265"/>
<path d="M41.8381 5.35694C41.8381 6.63288 41.4736 7.63541 40.6533 8.27338C39.9242 8.91135 38.8305 9.18477 37.4635 9.18477C36.8255 9.18477 36.1875 9.18477 35.7318 9.09363V1.9848C36.3698 1.89366 37.0078 1.80252 37.7369 1.80252C39.0128 1.80252 40.0153 2.07594 40.6533 2.62277C41.4736 3.26074 41.8381 4.17213 41.8381 5.35694ZM40.6533 5.35694C40.6533 4.53669 40.3799 3.89872 39.9242 3.44302C39.4685 2.98733 38.8305 2.80505 37.9191 2.80505C37.5546 2.80505 37.19 2.80505 36.9166 2.89619V8.27338C37.0989 8.27338 37.3723 8.27338 37.7369 8.27338C38.6483 8.27338 39.3774 7.99997 39.8331 7.54427C40.3799 6.99744 40.6533 6.26833 40.6533 5.35694Z" fill="#3E4265"/>
<path d="M48.4913 6.4506C48.4913 7.27085 48.2178 7.90882 47.7621 8.45566C47.3065 9.00249 46.5773 9.27591 45.8482 9.27591C45.028 9.27591 44.4811 9.00249 43.9343 8.5468C43.4786 7.99996 43.2052 7.36199 43.2052 6.63288C43.2052 5.81263 43.4786 5.17466 43.9343 4.62782C44.39 4.08099 45.028 3.89871 45.8482 3.89871C46.6685 3.89871 47.3065 4.17213 47.7621 4.62782C48.309 4.99238 48.4913 5.63035 48.4913 6.4506ZM47.3065 6.4506C47.3065 5.99491 47.2153 5.53921 47.033 5.17466C46.7596 4.71896 46.3951 4.53668 45.9394 4.53668C45.4837 4.53668 45.1191 4.71896 44.8457 5.17466C44.6634 5.53921 44.5723 5.90377 44.5723 6.4506C44.5723 6.9063 44.6634 7.36199 44.8457 7.72655C45.1191 8.18224 45.4837 8.36452 45.9394 8.36452C46.3951 8.36452 46.7596 8.18224 47.033 7.72655C47.2153 7.36199 47.3065 6.99743 47.3065 6.4506Z" fill="#3E4265"/>
<path d="M57.4228 3.89871L55.7823 9.09363H54.6887L53.9596 6.81516C53.7773 6.26832 53.6861 5.72149 53.5039 5.17466C53.4127 5.72149 53.2304 6.26832 53.0482 6.81516L52.3191 9.09363H51.2254L49.676 3.89871H50.8608L51.4988 6.35946C51.6811 6.9063 51.7722 7.54427 51.8634 7.99996C51.9545 7.54427 52.1368 6.99743 52.3191 6.35946L53.0482 3.89871H54.0507L54.7798 6.35946C54.9621 6.99743 55.0532 7.54427 55.2355 8.0911C55.3266 7.54427 55.4178 6.99743 55.6001 6.35946L56.238 3.89871H57.4228Z" fill="#3E4265"/>
<path d="M63.6203 9.09361H62.4354V6.08603C62.4354 5.17464 62.0709 4.71895 61.3418 4.71895C60.9772 4.71895 60.7038 4.81008 60.5215 5.0835C60.3393 5.35692 60.157 5.63033 60.157 5.99489V9.09361H58.9722V5.35692C58.9722 4.90122 58.9722 4.44553 58.9722 3.8987H59.9747L60.0658 4.71895C60.2481 4.44553 60.4304 4.26325 60.7038 4.08097C61.0684 3.89869 61.3418 3.80756 61.7975 3.80756C62.2532 3.80756 62.7089 3.98983 63.0734 4.26325C63.5291 4.62781 63.7114 5.26578 63.7114 5.99489V9.09361H63.6203Z" fill="#3E4265"/>
<path d="M66.9012 9.09364H65.7164V1.52911H66.9012V9.09364Z" fill="#3E4265"/>
<path d="M73.8278 6.4506C73.8278 7.27085 73.5544 7.90882 73.0987 8.45566C72.643 9.00249 71.9139 9.27591 71.1848 9.27591C70.3645 9.27591 69.8177 9.00249 69.2709 8.5468C68.8152 7.99996 68.5417 7.36199 68.5417 6.63288C68.5417 5.81263 68.8152 5.17466 69.2709 4.62782C69.7265 4.08099 70.3645 3.89871 71.1848 3.89871C72.005 3.89871 72.643 4.17213 73.0987 4.62782C73.6455 4.99238 73.8278 5.63035 73.8278 6.4506ZM72.643 6.4506C72.643 5.99491 72.5519 5.53921 72.3696 5.17466C72.0962 4.71896 71.7316 4.53668 71.2759 4.53668C70.8202 4.53668 70.4557 4.71896 70.1822 5.17466C70 5.53921 69.9088 5.90377 69.9088 6.4506C69.9088 6.9063 70 7.36199 70.1822 7.72655C70.4557 8.18224 70.8202 8.36452 71.2759 8.36452C71.7316 8.36452 72.0962 8.18224 72.3696 7.72655C72.5519 7.36199 72.643 6.99743 72.643 6.4506Z" fill="#3E4265"/>
<path d="M79.5696 9.09361H78.4759L78.3848 8.45564C78.0203 8.91133 77.4734 9.18475 76.8354 9.18475C76.2886 9.18475 75.9241 9.00247 75.6506 8.72906C75.3772 8.45564 75.1949 8.09108 75.1949 7.63539C75.1949 6.99742 75.4684 6.54172 76.0152 6.17717C76.562 5.81261 77.2911 5.72147 78.2937 5.72147V5.63033C78.2937 4.90122 77.9291 4.62781 77.2 4.62781C76.6532 4.62781 76.1975 4.71894 75.8329 4.99236L75.5595 4.26325C76.0152 3.98983 76.6532 3.80756 77.3823 3.80756C78.7494 3.80756 79.4785 4.53667 79.4785 5.99489V7.90881C79.5696 8.3645 79.5696 8.8202 79.5696 9.09361ZM78.3848 7.27083V6.54172C77.1089 6.54172 76.3798 6.90628 76.3798 7.63539C76.3798 7.90881 76.4709 8.09108 76.6532 8.27336C76.8354 8.45564 77.0177 8.45564 77.2 8.45564C77.4734 8.45564 77.7468 8.3645 77.9291 8.18222C78.1114 7.99995 78.2937 7.81767 78.3848 7.54425C78.3848 7.45311 78.3848 7.36197 78.3848 7.27083Z" fill="#3E4265"/>
<path d="M86.405 9.09364H85.3114L85.2202 8.27339C84.8557 8.91136 84.3088 9.18478 83.4886 9.18478C82.8506 9.18478 82.3038 9.0025 81.9392 8.45567C81.4835 7.99997 81.3013 7.362 81.3013 6.54175C81.3013 5.7215 81.5747 4.99239 82.0304 4.5367C82.4861 4.081 83.0329 3.80759 83.6709 3.80759C84.4 3.80759 84.8557 4.081 85.2202 4.5367V1.52911H86.405V7.72656C86.3139 8.18225 86.3139 8.63795 86.405 9.09364ZM85.1291 6.90631V5.99492C85.1291 5.81264 85.1291 5.7215 85.1291 5.63036C85.038 5.35695 84.8557 5.17467 84.6734 4.99239C84.4911 4.81011 84.2177 4.71898 83.8532 4.71898C83.3975 4.71898 83.0329 4.90125 82.8506 5.26581C82.5772 5.63036 82.4861 6.08606 82.4861 6.54175C82.4861 7.08859 82.5772 7.45314 82.8506 7.8177C83.124 8.18225 83.4886 8.36453 83.8532 8.36453C84.2177 8.36453 84.5823 8.18225 84.7645 7.90884C85.038 7.54428 85.1291 7.27086 85.1291 6.90631Z" fill="#3E4265"/>
<path d="M96.5214 6.4506C96.5214 7.27085 96.248 7.90882 95.7923 8.45566C95.3366 9.00249 94.6075 9.27591 93.8784 9.27591C93.0581 9.27591 92.5113 9.00249 91.9645 8.5468C91.5088 7.99996 91.2354 7.36199 91.2354 6.63288C91.2354 5.81263 91.5088 5.17466 91.9645 4.62782C92.4202 4.08099 93.0581 3.89871 93.8784 3.89871C94.6986 3.89871 95.3366 4.17213 95.7923 4.62782C96.3391 4.99238 96.5214 5.63035 96.5214 6.4506ZM95.3366 6.4506C95.3366 5.99491 95.2455 5.53921 95.0632 5.17466C94.7898 4.71896 94.4252 4.53668 93.9695 4.53668C93.5138 4.53668 93.1493 4.71896 92.8759 5.17466C92.6936 5.53921 92.6024 5.90377 92.6024 6.4506C92.6024 6.9063 92.6936 7.36199 92.8759 7.72655C93.1493 8.18224 93.5138 8.36452 93.9695 8.36452C94.4252 8.36452 94.7898 8.18224 95.0632 7.72655C95.1543 7.36199 95.3366 6.99743 95.3366 6.4506Z" fill="#3E4265"/>
<path d="M102.901 9.09361H101.716V6.08603C101.716 5.17464 101.352 4.71895 100.623 4.71895C100.258 4.71895 99.9847 4.81008 99.8024 5.0835C99.6201 5.35692 99.4379 5.63033 99.4379 5.99489V9.09361H98.2531V5.35692C98.2531 4.90122 98.2531 4.44553 98.2531 3.8987H99.2556L99.3467 4.71895C99.529 4.44553 99.7113 4.26325 99.9847 4.08097C100.349 3.89869 100.623 3.80756 101.078 3.80756C101.534 3.80756 101.99 3.98983 102.354 4.26325C102.81 4.62781 102.992 5.26578 102.992 5.99489V9.09361H102.901Z" fill="#3E4265"/>
<path d="M110.921 4.71895H109.645V7.27084C109.645 7.90881 109.919 8.27337 110.374 8.27337C110.557 8.27337 110.739 8.27337 110.921 8.18223V9.09362C110.648 9.18476 110.374 9.18475 110.01 9.18475C109.554 9.18475 109.19 9.00248 108.916 8.72906C108.643 8.45564 108.552 7.99995 108.552 7.36198V4.71895H107.731V3.80756H108.552V2.89617L109.736 2.53162V3.80756H111.012L110.921 4.71895Z" fill="#3E4265"/>
<path d="M117.21 9.09364H116.025V6.1772C116.025 5.26581 115.661 4.81011 114.931 4.81011C114.385 4.81011 114.02 5.08353 113.838 5.63036C113.838 5.7215 113.747 5.90378 113.747 6.08606V9.18478H112.562V1.52911H113.747V4.62784C114.111 4.081 114.658 3.80759 115.387 3.80759C115.843 3.80759 116.299 3.98986 116.572 4.26328C116.937 4.62784 117.21 5.26581 117.21 5.99492V9.09364Z" fill="#3E4265"/>
<path d="M123.681 6.26831C123.681 6.45058 123.681 6.63286 123.681 6.81514H120.126C120.126 7.36197 120.309 7.72653 120.673 7.99995C120.947 8.27336 121.402 8.3645 121.858 8.3645C122.405 8.3645 122.861 8.27336 123.316 8.09108L123.499 8.91133C122.952 9.09361 122.405 9.27589 121.676 9.27589C120.856 9.27589 120.218 9.00247 119.762 8.54678C119.306 8.09108 119.033 7.45311 119.033 6.63286C119.033 5.81261 119.215 5.17464 119.671 4.62781C120.126 4.08097 120.764 3.80756 121.585 3.80756C122.314 3.80756 122.952 4.08097 123.316 4.62781C123.499 5.0835 123.681 5.63033 123.681 6.26831ZM122.587 5.90375C122.587 5.53919 122.496 5.26578 122.314 4.99236C122.131 4.62781 121.767 4.53667 121.402 4.53667C121.038 4.53667 120.673 4.71894 120.491 4.99236C120.309 5.26578 120.218 5.53919 120.126 5.90375H122.587Z" fill="#3E4265"/>
</g>
</g>
</g>
<defs>
<clipPath id="clip0_20005128_14153">
<rect width="124" height="32.81" fill="white" transform="translate(0.800049 0.799988)"/>
</clipPath>
<clipPath id="clip1_20005128_14153">
<rect width="124" height="32.81" fill="white" transform="translate(0.800049 0.799988)"/>
</clipPath>
<clipPath id="clip2_20005128_14153">
<rect width="123.949" height="32.81" fill="white" transform="translate(0.825562 0.799988)"/>
</clipPath>
</defs>
</svg>
