<svg width="125" height="34" viewBox="0 0 125 34" fill="none" xmlns="http://www.w3.org/2000/svg">
<g clip-path="url(#clip0_20005128_12669)">
<g clip-path="url(#clip1_20005128_12669)">
<g clip-path="url(#clip2_20005128_12669)">
<path d="M19.9116 16.0613C19.9116 12.5069 22.9191 10.7753 23.0103 10.6841C21.2786 8.22339 18.6356 7.94997 17.7242 7.85883C15.5369 7.58542 13.3496 9.13478 12.1648 9.13478C10.9799 9.13478 9.24831 7.85883 7.33439 7.85883C4.87364 7.85883 2.59517 9.22591 1.41036 11.4132C-1.14153 15.7879 0.77239 22.1676 3.23314 25.6309C4.50909 27.3626 5.87617 29.2765 7.79009 29.1853C9.61286 29.0942 10.342 28.0005 12.5293 28.0005C14.7166 28.0005 15.3546 29.1853 17.2685 29.0942C19.2736 29.0942 20.4584 27.3626 21.6432 25.6309C23.1014 23.6259 23.6483 21.7119 23.6483 21.6208C23.7394 21.7119 19.9116 20.3449 19.9116 16.0613Z" fill="white"/>
<path d="M16.266 5.58035C17.2686 4.39555 17.9065 2.75505 17.7243 1.02341C16.266 1.11455 14.5344 2.02593 13.4407 3.21074C12.5293 4.21327 11.7091 5.94491 11.8914 7.58541C13.5319 7.67655 15.2635 6.76516 16.266 5.58035Z" fill="white"/>
<path d="M46.5242 29.003H43.9723L42.6052 24.7195H37.5926L36.2255 29.003H33.6736L38.5039 14.3297H41.5115L46.5242 29.003ZM42.0584 22.8967L40.7824 19.0689C40.6913 18.7043 40.4179 17.793 40.0533 16.3347C39.871 16.9727 39.6888 17.8841 39.3242 19.0689L38.0482 22.8967H42.0584Z" fill="white"/>
<path d="M59.0101 23.6259C59.0101 25.4486 58.5545 26.8157 57.5519 27.9094C56.6405 28.8208 55.5469 29.2765 54.1798 29.2765C52.7216 29.2765 51.719 28.7296 51.0811 27.7271V33.2866H48.6203V21.8942C48.6203 20.8006 48.6203 19.6158 48.5292 18.4309H50.6254L50.7165 20.0714C51.5368 18.7955 52.7216 18.1575 54.3621 18.1575C55.638 18.1575 56.7317 18.6132 57.5519 19.6158C58.5545 20.7094 59.0101 21.9854 59.0101 23.6259ZM56.5494 23.717C56.5494 22.7145 56.276 21.8031 55.8203 21.1651C55.2735 20.436 54.6355 20.1626 53.7241 20.1626C53.0861 20.1626 52.6304 20.3449 52.0836 20.7094C51.6279 21.074 51.2633 21.6208 51.1722 22.2588C51.0811 22.5322 51.0811 22.8056 51.0811 22.9879V24.7195C51.0811 25.4486 51.3545 26.1778 51.8102 26.6334C52.2659 27.1803 52.9038 27.4537 53.7241 27.4537C54.6355 27.4537 55.3646 27.0891 55.8203 26.4512C56.276 25.7221 56.5494 24.8107 56.5494 23.717Z" fill="white"/>
<path d="M71.4962 23.6259C71.4962 25.4486 71.0405 26.8157 70.0379 27.9094C69.1266 28.8208 68.0329 29.2765 66.6658 29.2765C65.2076 29.2765 64.2051 28.7296 63.5671 27.7271V33.2866H61.1063V21.8942C61.1063 20.8006 61.1063 19.6158 61.0152 18.4309H63.1114L63.2025 20.0714C64.0228 18.7955 65.2076 18.1575 66.8481 18.1575C68.124 18.1575 69.2177 18.6132 70.0379 19.6158C71.0405 20.7094 71.4962 21.9854 71.4962 23.6259ZM69.0354 23.717C69.0354 22.7145 68.762 21.8031 68.3063 21.1651C67.7595 20.436 67.1215 20.1626 66.2101 20.1626C65.5721 20.1626 65.1164 20.3449 64.5696 20.7094C64.1139 21.074 63.7494 21.6208 63.6582 22.2588C63.5671 22.5322 63.5671 22.8056 63.5671 22.9879V24.7195C63.5671 25.4486 63.8405 26.1778 64.2962 26.6334C64.7519 27.1803 65.3899 27.4537 66.2101 27.4537C67.1215 27.4537 67.8506 27.0891 68.3063 26.4512C68.762 25.7221 69.0354 24.8107 69.0354 23.717Z" fill="white"/>
<path d="M85.5316 24.9018C85.5316 26.1778 85.0759 27.1803 84.1645 28.0005C83.162 28.8208 81.7949 29.2765 80.0633 29.2765C78.4228 29.2765 77.1468 29.0031 76.1443 28.3651L76.6911 26.36C77.7848 26.998 78.8784 27.2714 80.1544 27.2714C81.0658 27.2714 81.7949 27.0891 82.2506 26.6335C82.7974 26.2689 82.9797 25.7221 82.9797 24.993C82.9797 24.355 82.7974 23.8993 82.3417 23.4436C81.886 23.079 81.2481 22.6233 80.2455 22.3499C77.6025 21.3474 76.3266 19.9803 76.3266 18.1575C76.3266 16.9727 76.7823 15.9702 77.6936 15.15C78.605 14.4208 79.881 13.9651 81.4303 13.9651C82.7974 13.9651 83.9822 14.2386 84.8936 14.6943L84.2556 16.6082C83.4354 16.1525 82.4329 15.9702 81.3392 15.9702C80.519 15.9702 79.7898 16.1525 79.3341 16.6082C78.9696 16.9727 78.6962 17.4284 78.6962 17.9753C78.6962 18.5221 78.9696 19.0689 79.4253 19.4335C79.7898 19.798 80.519 20.1626 81.6126 20.5271C82.8886 21.074 83.8911 21.6208 84.4379 22.3499C85.167 22.9879 85.5316 23.8993 85.5316 24.9018Z" fill="white"/>
<path d="M93.4607 20.1626H90.8177V25.3575C90.8177 26.6334 91.2734 27.3625 92.1848 27.3625C92.6404 27.3625 93.005 27.3625 93.2784 27.2714L93.3696 29.0942C92.9139 29.2765 92.2759 29.3676 91.4556 29.3676C90.5442 29.3676 89.724 29.0942 89.1772 28.5473C88.6303 28.0005 88.3569 26.998 88.3569 25.722V20.3449H86.8076V18.6132H88.3569V16.6993L90.7265 15.9702V18.6132H93.3696V20.1626H93.4607Z" fill="white"/>
<path d="M105.491 23.6259C105.491 25.2664 105.035 26.6334 104.033 27.636C103.03 28.7296 101.663 29.2765 100.023 29.2765C98.3822 29.2765 97.1974 28.7296 96.1949 27.7271C95.2835 26.7246 94.7366 25.3575 94.7366 23.8081C94.7366 22.1676 95.1923 20.8005 96.1949 19.798C97.1974 18.7955 98.4733 18.2487 100.114 18.2487C101.754 18.2487 103.03 18.7955 103.942 19.798C105.035 20.7094 105.491 22.0765 105.491 23.6259ZM103.03 23.717C103.03 22.7145 102.848 21.8942 102.392 21.1651C101.845 20.3449 101.116 19.8892 100.205 19.8892C99.2024 19.8892 98.4733 20.3449 98.0176 21.1651C97.5619 21.8942 97.3797 22.7145 97.3797 23.717C97.3797 24.7195 97.5619 25.5398 98.0176 26.2689C98.5645 27.0891 99.2936 27.5448 100.205 27.5448C101.116 27.5448 101.845 27.0891 102.392 26.2689C102.757 25.5398 103.03 24.7195 103.03 23.717Z" fill="white"/>
<path d="M113.329 20.5271C113.056 20.5271 112.873 20.436 112.6 20.436C111.78 20.436 111.05 20.7094 110.595 21.3474C110.23 21.8942 109.957 22.6233 109.957 23.4436V29.0031H107.496V21.7119C107.496 20.5271 107.496 19.3423 107.405 18.3398H109.501L109.592 20.3449H109.683C109.957 19.6158 110.321 19.0689 110.868 18.7044C111.415 18.3398 111.962 18.1575 112.6 18.1575C112.782 18.1575 113.056 18.1575 113.238 18.1575V20.5271H113.329Z" fill="white"/>
<path d="M124.174 23.2613C124.174 23.717 124.174 24.0815 124.083 24.355H116.792C116.792 25.3575 117.157 26.1777 117.886 26.7246C118.524 27.1803 119.253 27.4537 120.255 27.4537C121.349 27.4537 122.352 27.2714 123.172 26.9068L123.536 28.5473C122.534 29.003 121.258 29.1853 119.891 29.1853C118.159 29.1853 116.883 28.7296 115.881 27.7271C114.878 26.7246 114.423 25.4486 114.423 23.8081C114.423 22.1676 114.878 20.8917 115.79 19.798C116.701 18.7043 117.977 18.0664 119.618 18.0664C121.167 18.0664 122.352 18.6132 123.172 19.798C123.81 20.8005 124.174 21.8942 124.174 23.2613ZM121.896 22.6233C121.896 21.8942 121.714 21.3474 121.44 20.8005C120.985 20.1626 120.347 19.798 119.526 19.798C118.706 19.798 118.068 20.1626 117.612 20.8005C117.248 21.3474 116.974 21.8942 116.883 22.6233H121.896Z" fill="white"/>
<path d="M41.2381 5.30695C41.2381 6.58289 40.8735 7.58542 40.0533 8.22339C39.3242 8.86137 38.2305 9.13478 36.8634 9.13478C36.2254 9.13478 35.5875 9.13478 35.1318 9.04364V1.93481C35.7697 1.84367 36.4077 1.75253 37.1368 1.75253C38.4128 1.75253 39.4153 2.02595 40.0533 2.57278C40.8735 3.21076 41.2381 4.12214 41.2381 5.30695ZM40.0533 5.30695C40.0533 4.4867 39.7799 3.84873 39.3242 3.39303C38.8685 2.93734 38.2305 2.75506 37.3191 2.75506C36.9546 2.75506 36.59 2.75506 36.3166 2.8462V8.22339C36.4989 8.22339 36.7723 8.22339 37.1368 8.22339C38.0482 8.22339 38.7773 7.94998 39.233 7.49428C39.7799 6.94745 40.0533 6.21834 40.0533 5.30695Z" fill="white"/>
<path d="M47.8912 6.40061C47.8912 7.22086 47.6178 7.85883 47.1621 8.40567C46.7064 8.9525 45.9773 9.22592 45.2482 9.22592C44.4279 9.22592 43.8811 8.9525 43.3343 8.49681C42.8786 7.94997 42.6052 7.312 42.6052 6.58289C42.6052 5.76264 42.8786 5.12467 43.3343 4.57784C43.79 4.031 44.4279 3.84872 45.2482 3.84872C46.0684 3.84872 46.7064 4.12214 47.1621 4.57784C47.7089 4.94239 47.8912 5.58036 47.8912 6.40061ZM46.7064 6.40061C46.7064 5.94492 46.6153 5.48922 46.433 5.12467C46.1596 4.66897 45.795 4.4867 45.3393 4.4867C44.8836 4.4867 44.5191 4.66897 44.2457 5.12467C44.0634 5.48922 43.9722 5.85378 43.9722 6.40061C43.9722 6.85631 44.0634 7.312 44.2457 7.67656C44.5191 8.13225 44.8836 8.31453 45.3393 8.31453C45.795 8.31453 46.1596 8.13225 46.433 7.67656C46.6153 7.312 46.7064 6.94745 46.7064 6.40061Z" fill="white"/>
<path d="M56.8229 3.84872L55.1824 9.04364H54.0887L53.3596 6.76517C53.1773 6.21834 53.0862 5.6715 52.9039 5.12467C52.8127 5.6715 52.6305 6.21834 52.4482 6.76517L51.7191 9.04364H50.6254L49.076 3.84872H50.2609L50.8988 6.30947C51.0811 6.85631 51.1722 7.49428 51.2634 7.94997C51.3545 7.49428 51.5368 6.94745 51.7191 6.30947L52.4482 3.84872H53.4507L54.1798 6.30947C54.3621 6.94745 54.4532 7.49428 54.6355 8.04111C54.7267 7.49428 54.8178 6.94745 55.0001 6.30947L55.6381 3.84872H56.8229Z" fill="white"/>
<path d="M63.0203 9.04362H61.8355V6.03604C61.8355 5.12465 61.4709 4.66896 60.7418 4.66896C60.3773 4.66896 60.1038 4.7601 59.9216 5.03351C59.7393 5.30693 59.557 5.58035 59.557 5.9449V9.04362H58.3722V5.30693C58.3722 4.85124 58.3722 4.39554 58.3722 3.84871H59.3747L59.4659 4.66896C59.6481 4.39554 59.8304 4.21326 60.1038 4.03098C60.4684 3.84871 60.7418 3.75757 61.1975 3.75757C61.6532 3.75757 62.1089 3.93985 62.4734 4.21326C62.9291 4.57782 63.1114 5.21579 63.1114 5.9449V9.04362H63.0203Z" fill="white"/>
<path d="M66.3013 9.04365H65.1165V1.47913H66.3013V9.04365Z" fill="white"/>
<path d="M73.2278 6.40061C73.2278 7.22086 72.9544 7.85883 72.4987 8.40567C72.043 8.9525 71.3139 9.22592 70.5848 9.22592C69.7645 9.22592 69.2177 8.9525 68.6709 8.49681C68.2152 7.94997 67.9418 7.312 67.9418 6.58289C67.9418 5.76264 68.2152 5.12467 68.6709 4.57784C69.1266 4.031 69.7645 3.84872 70.5848 3.84872C71.405 3.84872 72.043 4.12214 72.4987 4.57784C73.0456 4.94239 73.2278 5.58036 73.2278 6.40061ZM72.043 6.40061C72.043 5.94492 71.9519 5.48922 71.7696 5.12467C71.4962 4.66897 71.1316 4.4867 70.6759 4.4867C70.2202 4.4867 69.8557 4.66897 69.5823 5.12467C69.4 5.48922 69.3089 5.85378 69.3089 6.40061C69.3089 6.85631 69.4 7.312 69.5823 7.67656C69.8557 8.13225 70.2202 8.31453 70.6759 8.31453C71.1316 8.31453 71.4962 8.13225 71.7696 7.67656C71.9519 7.312 72.043 6.94745 72.043 6.40061Z" fill="white"/>
<path d="M78.9696 9.04362H77.8759L77.7848 8.40565C77.4202 8.86135 76.8734 9.13476 76.2354 9.13476C75.6886 9.13476 75.324 8.95248 75.0506 8.67907C74.7772 8.40565 74.5949 8.0411 74.5949 7.5854C74.5949 6.94743 74.8683 6.49174 75.4152 6.12718C75.962 5.76262 76.6911 5.67149 77.6936 5.67149V5.58035C77.6936 4.85124 77.3291 4.57782 76.6 4.57782C76.0531 4.57782 75.5974 4.66896 75.2329 4.94237L74.9595 4.21326C75.4152 3.93985 76.0531 3.75757 76.7822 3.75757C78.1493 3.75757 78.8784 4.48668 78.8784 5.9449V7.85882C78.9696 8.31451 78.9696 8.77021 78.9696 9.04362ZM77.7848 7.22085V6.49174C76.5088 6.49174 75.7797 6.85629 75.7797 7.5854C75.7797 7.85882 75.8709 8.0411 76.0531 8.22337C76.2354 8.40565 76.4177 8.40565 76.6 8.40565C76.8734 8.40565 77.1468 8.31451 77.3291 8.13224C77.5114 7.94996 77.6936 7.76768 77.7848 7.49426C77.7848 7.40312 77.7848 7.31199 77.7848 7.22085Z" fill="white"/>
<path d="M85.805 9.04365H84.7113L84.6202 8.2234C84.2556 8.86138 83.7088 9.13479 82.8886 9.13479C82.2506 9.13479 81.7038 8.95251 81.3392 8.40568C80.8835 7.94999 80.7012 7.31201 80.7012 6.49177C80.7012 5.67151 80.9746 4.9424 81.4303 4.48671C81.886 4.03101 82.4329 3.7576 83.0708 3.7576C83.8 3.7576 84.2556 4.03101 84.6202 4.48671V1.47913H85.805V7.67657C85.7139 8.13226 85.7139 8.58796 85.805 9.04365ZM84.5291 6.85632V5.94493C84.5291 5.76265 84.5291 5.67151 84.5291 5.58038C84.4379 5.30696 84.2556 5.12468 84.0734 4.9424C83.8911 4.76013 83.6177 4.66899 83.2531 4.66899C82.7974 4.66899 82.4329 4.85126 82.2506 5.21582C81.9772 5.58038 81.886 6.03607 81.886 6.49177C81.886 7.0386 81.9772 7.40315 82.2506 7.76771C82.524 8.13226 82.8886 8.31454 83.2531 8.31454C83.6177 8.31454 83.9822 8.13226 84.1645 7.85885C84.4379 7.49429 84.5291 7.22088 84.5291 6.85632Z" fill="white"/>
<path d="M95.9214 6.40061C95.9214 7.22086 95.648 7.85883 95.1923 8.40567C94.7366 8.9525 94.0075 9.22592 93.2784 9.22592C92.4582 9.22592 91.9113 8.9525 91.3645 8.49681C90.9088 7.94997 90.6354 7.312 90.6354 6.58289C90.6354 5.76264 90.9088 5.12467 91.3645 4.57784C91.8202 4.031 92.4582 3.84872 93.2784 3.84872C94.0987 3.84872 94.7366 4.12214 95.1923 4.57784C95.7392 4.94239 95.9214 5.58036 95.9214 6.40061ZM94.7366 6.40061C94.7366 5.94492 94.6455 5.48922 94.4632 5.12467C94.1898 4.66897 93.8252 4.4867 93.3695 4.4867C92.9138 4.4867 92.5493 4.66897 92.2759 5.12467C92.0936 5.48922 92.0025 5.85378 92.0025 6.40061C92.0025 6.85631 92.0936 7.312 92.2759 7.67656C92.5493 8.13225 92.9138 8.31453 93.3695 8.31453C93.8252 8.31453 94.1898 8.13225 94.4632 7.67656C94.5544 7.312 94.7366 6.94745 94.7366 6.40061Z" fill="white"/>
<path d="M102.301 9.04362H101.116V6.03604C101.116 5.12465 100.752 4.66896 100.023 4.66896C99.6581 4.66896 99.3847 4.7601 99.2024 5.03351C99.0202 5.30693 98.8379 5.58035 98.8379 5.9449V9.04362H97.6531V5.30693C97.6531 4.85124 97.6531 4.39554 97.6531 3.84871H98.6556L98.7467 4.66896C98.929 4.39554 99.1113 4.21326 99.3847 4.03098C99.7493 3.84871 100.023 3.75757 100.478 3.75757C100.934 3.75757 101.39 3.93985 101.754 4.21326C102.21 4.57782 102.392 5.21579 102.392 5.9449V9.04362H102.301Z" fill="white"/>
<path d="M110.321 4.66896H109.045V7.22085C109.045 7.85882 109.319 8.22338 109.775 8.22338C109.957 8.22338 110.139 8.22338 110.321 8.13224V9.04363C110.048 9.13477 109.775 9.13477 109.41 9.13477C108.954 9.13477 108.59 8.95249 108.316 8.67907C108.043 8.40566 107.952 7.94996 107.952 7.31199V4.66896H107.132V3.75757H107.952V2.84618L109.137 2.48163V3.75757H110.413L110.321 4.66896Z" fill="white"/>
<path d="M116.61 9.04365H115.425V6.12721C115.425 5.21582 115.061 4.76013 114.331 4.76013C113.785 4.76013 113.42 5.03354 113.238 5.58038C113.238 5.67151 113.147 5.85379 113.147 6.03607V9.13479H111.962V1.47913H113.147V4.57785C113.511 4.03101 114.058 3.7576 114.787 3.7576C115.243 3.7576 115.699 3.93988 115.972 4.21329C116.337 4.57785 116.61 5.21582 116.61 5.94493V9.04365Z" fill="white"/>
<path d="M123.081 6.21832C123.081 6.4006 123.081 6.58287 123.081 6.76515H119.526C119.526 7.31199 119.709 7.67654 120.073 7.94996C120.347 8.22337 120.802 8.31451 121.258 8.31451C121.805 8.31451 122.261 8.22337 122.716 8.0411L122.899 8.86135C122.352 9.04362 121.805 9.2259 121.076 9.2259C120.256 9.2259 119.618 8.95248 119.162 8.49679C118.706 8.0411 118.433 7.40312 118.433 6.58287C118.433 5.76262 118.615 5.12465 119.071 4.57782C119.526 4.03098 120.164 3.75757 120.985 3.75757C121.714 3.75757 122.352 4.03098 122.716 4.57782C122.899 5.03351 123.081 5.58035 123.081 6.21832ZM121.987 5.85376C121.987 5.48921 121.896 5.21579 121.714 4.94237C121.531 4.57782 121.167 4.48668 120.802 4.48668C120.438 4.48668 120.073 4.66896 119.891 4.94237C119.709 5.21579 119.618 5.48921 119.526 5.85376H121.987Z" fill="white"/>
</g>
</g>
</g>
<defs>
<clipPath id="clip0_20005128_12669">
<rect width="124" height="32.81" fill="white" transform="translate(0.200012 0.75)"/>
</clipPath>
<clipPath id="clip1_20005128_12669">
<rect width="124" height="32.81" fill="white" transform="translate(0.200012 0.75)"/>
</clipPath>
<clipPath id="clip2_20005128_12669">
<rect width="123.949" height="32.81" fill="white" transform="translate(0.225586 0.75)"/>
</clipPath>
</defs>
</svg>
