<svg width="28" height="29" viewBox="0 0 28 29" fill="none" xmlns="http://www.w3.org/2000/svg">
<g clip-path="url(#clip0_20005128_14674)">
<g clip-path="url(#clip1_20005128_14674)">
<g clip-path="url(#clip2_20005128_14674)">
<mask id="mask0_20005128_14674" style="mask-type:luminance" maskUnits="userSpaceOnUse" x="0" y="0" width="28" height="29">
<path d="M0 0.849976H28V28.85H0V0.849976Z" fill="white"/>
</mask>
<g mask="url(#mask0_20005128_14674)">
<path d="M25.813 22.833V3.58398C25.8122 3.43915 25.7543 3.30047 25.6519 3.19806C25.5495 3.09565 25.4108 3.03776 25.266 3.03698H22.86C22.7152 3.03776 22.5765 3.09565 22.4741 3.19806C22.3717 3.30047 22.3138 3.43915 22.313 3.58398V26.66H26.906C27.51 26.66 28 27.15 28 27.753C28 28.356 27.51 28.847 26.906 28.847H1.096C0.492 28.847 0.002 28.357 0.002 27.753V19.933C0.00358502 19.2084 0.29214 18.5139 0.804521 18.0015C1.3169 17.4891 2.01139 17.2006 2.736 17.199H5.142C5.86661 17.2006 6.5611 17.4891 7.07348 18.0015C7.58586 18.5139 7.87441 19.2084 7.876 19.933V22.831C7.876 23.435 7.386 23.925 6.782 23.925C6.178 23.925 5.688 23.435 5.688 22.831V19.933C5.68721 19.7881 5.62933 19.6495 5.52692 19.5471C5.4245 19.4446 5.28583 19.3868 5.141 19.386H2.736C2.59117 19.3868 2.4525 19.4446 2.35008 19.5471C2.24767 19.6495 2.18979 19.7881 2.189 19.933V26.659H10.064V12.334C10.0656 11.6094 10.3541 10.9149 10.8665 10.4025C11.3789 9.89011 12.0734 9.60156 12.798 9.59998H15.204C15.9286 9.60156 16.6231 9.89011 17.1355 10.4025C17.6479 10.9149 17.9364 11.6094 17.938 12.334V22.833C17.938 23.437 17.448 23.927 16.844 23.927C16.24 23.927 15.75 23.437 15.75 22.833V12.334C15.7492 12.1891 15.6913 12.0505 15.5889 11.9481C15.4865 11.8456 15.3478 11.7878 15.203 11.787H12.797C12.6522 11.7878 12.5135 11.8456 12.4111 11.9481C12.3087 12.0505 12.2508 12.1891 12.25 12.334V26.661H20.124V3.58398C20.1256 2.85901 20.4144 2.16423 20.9272 1.65179C21.44 1.13935 22.135 0.851032 22.86 0.849976L25.266 0.849976C25.9906 0.851561 26.6851 1.14012 27.1975 1.6525C27.7099 2.16488 27.9984 2.85936 28 3.58398V22.833C28 23.437 27.51 23.927 26.906 23.927C26.302 23.927 25.813 23.437 25.813 22.833ZM4.357 10.638H2.728C2.459 10.638 2.187 10.469 2.187 10.146C2.187 9.54198 1.697 9.05198 1.093 9.05198C0.489 9.05198 0 9.54198 0 10.146C0 11.615 1.145 12.772 2.626 12.823V13.427C2.626 14.031 3.116 14.521 3.72 14.521C4.324 14.521 4.814 14.031 4.814 13.427V12.794C6.319 12.584 7.44 11.347 7.44 9.80498V9.70898C7.44 7.98998 6.057 6.59198 4.358 6.59198H3.355C2.857 6.59198 2.466 6.21198 2.466 5.72598V5.64698C2.466 5.15698 2.848 4.78798 3.355 4.78798H4.303C4.582 4.78798 4.87 4.97398 4.87 5.28598C4.87 5.88998 5.36 6.37998 5.964 6.37998C6.568 6.37998 7.058 5.88998 7.058 5.28598C7.058 3.97498 6.09 2.88198 4.815 2.64698V1.94398C4.813 1.33998 4.324 0.849976 3.72 0.849976C3.116 0.849976 2.626 1.33998 2.626 1.94398V2.68498C2.085 2.81298 1.589 3.08298 1.187 3.47598C0.897724 3.7582 0.668243 4.09578 0.512243 4.4686C0.356243 4.84142 0.276919 5.24184 0.279 5.64598V5.72498C0.279 6.55098 0.601 7.32198 1.185 7.89698C1.763 8.46498 2.534 8.77798 3.355 8.77798H4.357C4.842 8.77798 5.252 9.20398 5.252 9.70698V9.80298C5.252 10.279 4.867 10.637 4.357 10.637V10.638Z" fill="url(#paint0_linear_20005128_14674)"/>
</g>
</g>
</g>
</g>
<defs>
<linearGradient id="paint0_linear_20005128_14674" x1="0" y1="14.916" x2="28" y2="14.916" gradientUnits="userSpaceOnUse">
<stop stop-color="#6366F1"/>
<stop offset="0.5" stop-color="#8B5CF6"/>
<stop offset="1" stop-color="#D946EF"/>
</linearGradient>
<clipPath id="clip0_20005128_14674">
<rect width="28" height="28" fill="white" transform="translate(0 0.849976)"/>
</clipPath>
<clipPath id="clip1_20005128_14674">
<rect width="28" height="28" fill="white" transform="translate(0 0.849976)"/>
</clipPath>
<clipPath id="clip2_20005128_14674">
<rect width="28" height="28" fill="white" transform="translate(0 0.849976)"/>
</clipPath>
</defs>
</svg>
