<svg width="29" height="29" viewBox="0 0 29 29" fill="none" xmlns="http://www.w3.org/2000/svg">
<g clip-path="url(#clip0_20005128_14707)">
<g clip-path="url(#clip1_20005128_14707)">
<g clip-path="url(#clip2_20005128_14707)">
<mask id="mask0_20005128_14707" style="mask-type:luminance" maskUnits="userSpaceOnUse" x="0" y="0" width="29" height="29">
<path d="M0.800049 0.649902H28.8V28.6499H0.800049V0.649902Z" fill="white"/>
</mask>
<g mask="url(#mask0_20005128_14707)">
<path d="M14.745 22.3059C9.71405 22.3059 7.37205 18.0839 7.27505 17.9049C6.98805 17.3739 7.18505 16.7099 7.71705 16.4219C8.24905 16.1339 8.91205 16.3329 9.19905 16.8639C9.20105 16.8679 9.67305 17.7109 10.611 18.5309C11.816 19.5839 13.207 20.1189 14.745 20.1189C18.487 20.1189 20.273 16.8969 20.291 16.8639C20.579 16.3329 21.2421 16.1349 21.774 16.4219C22.306 16.7089 22.503 17.3729 22.216 17.9039C22.119 18.0839 19.778 22.3049 14.746 22.3049L14.745 22.3059ZM22.044 26.6319C22.561 26.3189 22.726 25.6469 22.413 25.1299C22.1 24.6129 21.427 24.4479 20.911 24.7609C19.0678 25.8759 16.9543 26.4645 14.8 26.4629C11.6686 26.4581 8.66679 25.212 6.45261 22.9976C4.23843 20.7833 2.99255 17.7814 2.98805 14.6499C2.99281 11.5186 4.23881 8.51696 6.45296 6.30282C8.66711 4.08867 11.6688 2.84266 14.8 2.8379C17.9315 2.8424 20.9334 4.08829 23.1478 6.30246C25.3621 8.51664 26.6083 11.5185 26.613 14.6499C26.613 16.9789 25.92 19.2459 24.61 21.2059C24.274 21.7079 24.409 22.3869 24.911 22.7229C25.413 23.0589 26.092 22.9239 26.428 22.4219C27.98 20.1009 28.8 17.4129 28.8 14.6499C28.8 10.9109 27.344 7.3949 24.7 4.7499C22.056 2.1049 18.54 0.649902 14.8 0.649902C11.06 0.649902 7.54505 2.1059 4.90005 4.7499C2.25505 7.3939 0.800049 10.9109 0.800049 14.6499C0.800049 18.3889 2.25605 21.9049 4.90005 24.5499C7.54405 27.1949 11.061 28.6499 14.8 28.6499C17.36 28.6499 19.865 27.9519 22.044 26.6319ZM22.402 12.0249C22.4005 11.3003 22.1119 10.6058 21.5995 10.0934C21.0871 9.58104 20.3927 9.29249 19.668 9.2909C18.9434 9.29249 18.249 9.58104 17.7366 10.0934C17.2242 10.6058 16.9356 11.3003 16.934 12.0249C16.934 12.6289 17.424 13.1189 18.028 13.1189C18.632 13.1189 19.122 12.6289 19.122 12.0249C19.1228 11.8801 19.1807 11.7414 19.2831 11.639C19.3855 11.5366 19.5242 11.4787 19.669 11.4779C19.8139 11.4787 19.9526 11.5366 20.055 11.639C20.1574 11.7414 20.2153 11.8801 20.216 12.0249C20.216 12.6289 20.706 13.1189 21.31 13.1189C21.914 13.1189 22.404 12.6289 22.404 12.0249H22.402ZM12.722 12.0249C12.7205 11.3003 12.4319 10.6058 11.9195 10.0934C11.4071 9.58104 10.7127 9.29249 9.98805 9.2909C9.26343 9.29249 8.56895 9.58104 8.05657 10.0934C7.54419 10.6058 7.25563 11.3003 7.25405 12.0249C7.25405 12.6289 7.74405 13.1189 8.34805 13.1189C8.95205 13.1189 9.44205 12.6289 9.44205 12.0249C9.44284 11.8801 9.50072 11.7414 9.60313 11.639C9.70554 11.5366 9.84422 11.4787 9.98905 11.4779C10.1339 11.4787 10.2726 11.5366 10.375 11.639C10.4774 11.7414 10.5353 11.8801 10.536 12.0249C10.536 12.6289 11.026 13.1189 11.63 13.1189C12.234 13.1189 12.724 12.6289 12.724 12.0249H12.722Z" fill="url(#paint0_linear_20005128_14707)"/>
</g>
</g>
</g>
</g>
<defs>
<linearGradient id="paint0_linear_20005128_14707" x1="0.800049" y1="14.7169" x2="28.8" y2="14.7169" gradientUnits="userSpaceOnUse">
<stop stop-color="#6366F1"/>
<stop offset="0.5" stop-color="#8B5CF6"/>
<stop offset="1" stop-color="#D946EF"/>
</linearGradient>
<clipPath id="clip0_20005128_14707">
<rect width="28" height="28" fill="white" transform="translate(0.800049 0.649902)"/>
</clipPath>
<clipPath id="clip1_20005128_14707">
<rect width="28" height="28" fill="white" transform="translate(0.800049 0.649902)"/>
</clipPath>
<clipPath id="clip2_20005128_14707">
<rect width="28" height="28" fill="white" transform="translate(0.800049 0.649902)"/>
</clipPath>
</defs>
</svg>
