<svg width="29" height="29" viewBox="0 0 29 29" fill="none" xmlns="http://www.w3.org/2000/svg">
<g clip-path="url(#clip0_20005128_14687)">
<mask id="mask0_20005128_14687" style="mask-type:luminance" maskUnits="userSpaceOnUse" x="0" y="0" width="29" height="29">
<path d="M0.800049 0.849976H28.8V28.85H0.800049V0.849976Z" fill="white"/>
</mask>
<g mask="url(#mask0_20005128_14687)">
<path d="M27.122 23.394C28.222 21.897 28.799 20.157 28.799 18.324C28.799 15.389 27.277 12.664 24.709 10.963C24.472 8.34798 23.251 5.92298 21.209 4.05398C18.952 1.98798 15.957 0.849976 12.776 0.849976C9.59503 0.849976 6.60003 1.98798 4.34203 4.05398C2.05803 6.14498 0.800035 8.93298 0.800035 11.904C0.800035 14.189 1.53703 16.356 2.93703 18.21L0.879035 23.299C0.712035 23.712 0.812035 24.184 1.13203 24.494C1.34003 24.696 1.61503 24.802 1.89403 24.802C2.04303 24.802 2.19303 24.772 2.33503 24.709L8.20303 22.122C8.94003 22.404 9.69903 22.614 10.475 22.754C11.27 24.062 12.405 25.17 13.784 25.976C15.324 26.876 17.101 27.357 18.93 27.371L19.011 27.375C20.2561 27.3782 21.4917 27.1581 22.659 26.725L27.265 28.756C27.404 28.8174 27.5542 28.849 27.706 28.849C27.985 28.849 28.259 28.742 28.468 28.541C28.788 28.231 28.888 27.758 28.721 27.346L27.122 23.394ZM24.856 23.624L25.682 25.668L23.121 24.539C22.844 24.417 22.529 24.415 22.251 24.534C21.247 24.962 20.172 25.182 19.055 25.188L19.011 25.186C16.856 25.186 14.819 24.344 13.397 22.943C15.201 22.857 16.969 22.396 18.545 21.595C19.084 21.321 19.298 20.663 19.025 20.124C18.752 19.585 18.093 19.371 17.554 19.644C16.103 20.381 14.451 20.771 12.777 20.771C11.322 20.771 9.92103 20.488 8.61403 19.93C8.33603 19.811 8.02003 19.813 7.74403 19.935L3.91803 21.621L5.20603 18.435C5.35903 18.057 5.28903 17.626 5.02403 17.316C3.69203 15.753 2.98803 13.882 2.98803 11.904C2.98803 7.01498 7.37903 3.03698 12.777 3.03698C18.175 3.03698 22.566 7.01498 22.566 11.904C22.566 13.483 22.102 15.033 21.223 16.387C20.894 16.894 21.039 17.571 21.545 17.9C22.051 18.229 22.729 18.084 23.058 17.578C23.8297 16.3931 24.3539 15.0645 24.599 13.672C25.88 14.927 26.612 16.58 26.612 18.324C26.612 19.851 26.068 21.297 25.037 22.505C24.773 22.815 24.704 23.247 24.856 23.624ZM13.815 17.53C13.815 18.134 13.325 18.624 12.721 18.624C12.117 18.624 11.627 18.134 11.627 17.53C11.627 16.926 12.117 16.436 12.721 16.436C13.325 16.436 13.815 16.926 13.815 17.53ZM16.877 9.33498C16.878 9.34998 16.878 9.36498 16.878 9.38098C16.8787 10.1853 16.6428 10.972 16.1997 11.6432C15.7566 12.3145 15.1259 12.8405 14.386 13.156C14.073 13.29 13.87 13.605 13.87 13.96V14.031C13.87 14.635 13.38 15.125 12.776 15.125C12.172 15.125 11.682 14.635 11.682 14.031V13.961C11.6793 13.3623 11.8527 12.7761 12.1808 12.2754C12.5089 11.7746 12.9771 11.3815 13.527 11.145C14.224 10.847 14.678 10.17 14.69 9.41398V9.38198C14.69 8.32698 13.832 7.46798 12.776 7.46798C11.72 7.46798 10.862 8.32598 10.862 9.38198C10.862 9.98598 10.372 10.476 9.76803 10.476C9.16403 10.476 8.67403 9.98598 8.67403 9.38198C8.67403 7.12098 10.514 5.28098 12.775 5.28098C15.021 5.28098 16.851 7.09598 16.876 9.33598L16.877 9.33498Z" fill="url(#paint0_linear_20005128_14687)"/>
</g>
</g>
<defs>
<linearGradient id="paint0_linear_20005128_14687" x1="0.800035" y1="14.917" x2="28.8" y2="14.917" gradientUnits="userSpaceOnUse">
<stop stop-color="#6366F1"/>
<stop offset="0.5" stop-color="#8B5CF6"/>
<stop offset="1" stop-color="#D946EF"/>
</linearGradient>
<clipPath id="clip0_20005128_14687">
<rect width="28" height="28" fill="white" transform="translate(0.800049 0.849976)"/>
</clipPath>
</defs>
</svg>
