<svg width="19" height="19" viewBox="0 0 19 19" fill="none" xmlns="http://www.w3.org/2000/svg">
<path d="M15.6609 3.26564H3.93906C3.52656 3.26564 3.17708 3.40887 2.89062 3.69532C2.60417 3.98178 2.46094 4.32553 2.46094 4.72657V13.5266C2.46094 13.9276 2.60417 14.2742 2.89062 14.5664C3.17708 14.8586 3.52656 15.0047 3.93906 15.0047H15.6609C16.0734 15.0047 16.4229 14.8586 16.7094 14.5664C16.9958 14.2742 17.1391 13.9276 17.1391 13.5266V4.72657C17.1391 4.32553 16.9958 3.98178 16.7094 3.69532C16.4229 3.40887 16.0734 3.26564 15.6609 3.26564ZM15.6609 4.72657V5.1047L9.8 9.67657L3.93906 5.1047V4.72657H15.6609ZM3.93906 13.5266V6.96095L9.35313 11.1719C9.41042 11.2177 9.47917 11.255 9.55938 11.2836C9.63958 11.3123 9.71979 11.3266 9.8 11.3266C9.88021 11.3266 9.96042 11.3123 10.0406 11.2836C10.1208 11.255 10.1896 11.2177 10.2469 11.1719L15.6609 6.96095V13.5266H3.93906Z" fill="#9397AD"/>
</svg>
