<svg width="140" height="33" viewBox="0 0 140 33" fill="none" xmlns="http://www.w3.org/2000/svg">
<g clip-path="url(#clip0_20005128_12696)">
<g clip-path="url(#clip1_20005128_12696)">
<g clip-path="url(#clip2_20005128_12696)">
<path d="M46.186 4.24746C46.186 5.26933 45.8794 5.98465 45.2663 6.59777C44.551 7.31309 43.7335 7.61965 42.6094 7.61965C41.5876 7.61965 40.6679 7.31309 39.9526 6.59777C39.2372 5.88246 38.8285 5.06496 38.8285 4.04308C38.8285 3.02121 39.2372 2.10152 39.9526 1.4884C40.6679 0.773085 41.5876 0.466522 42.6094 0.466522C43.1204 0.466522 43.6313 0.56871 44.0401 0.773085C44.551 0.97746 44.8576 1.18183 45.1641 1.59058L44.6532 1.99933C44.1422 1.38621 43.5291 1.18183 42.7116 1.18183C41.9963 1.18183 41.281 1.4884 40.7701 1.99933C40.2591 2.51027 39.9526 3.22558 39.9526 4.04308C39.9526 4.86058 40.2591 5.5759 40.7701 6.08683C41.281 6.59777 41.9963 6.90433 42.7116 6.90433C43.5291 6.90433 44.1422 6.59777 44.7554 6.08683C45.0619 5.78027 45.2663 5.26933 45.3685 4.65621H42.8138V3.63434H46.2882C46.186 3.83871 46.186 4.04308 46.186 4.24746Z" fill="white"/>
<path d="M51.7041 1.28402H48.4341V3.53215H51.3975V4.34965H48.4341V6.59777H51.7041V7.41527H47.5144V0.466522H51.7041V1.28402Z" fill="white"/>
<path d="M55.5872 7.41527H54.6675V1.28402H52.6238V0.466522H57.5288V1.28402H55.485V7.41527H55.5872Z" fill="white"/>
<path d="M61.1053 7.41527V0.466522H62.025V7.41527H61.1053Z" fill="white"/>
<path d="M66.1125 7.41527H65.1929V1.28402H63.1491V0.466522H68.1563V1.28402H66.1125V7.41527Z" fill="white"/>
<path d="M77.4553 6.4956C76.74 7.21091 75.9225 7.51747 74.7984 7.51747C73.7766 7.51747 72.8569 7.21091 72.1416 6.4956C71.4263 5.78029 71.1197 4.96279 71.1197 3.94091C71.1197 2.91904 71.4263 2.10154 72.1416 1.38622C72.8569 0.670912 73.6744 0.364349 74.7984 0.364349C75.8203 0.364349 76.74 0.670912 77.4553 1.38622C78.1706 2.10154 78.4772 2.91904 78.4772 3.94091C78.4772 4.96279 78.1706 5.78029 77.4553 6.4956ZM72.8569 5.88247C73.3678 6.39341 74.0831 6.69998 74.7984 6.69998C75.5138 6.69998 76.2291 6.39341 76.74 5.88247C77.2509 5.37154 77.5575 4.65622 77.5575 3.83872C77.5575 3.02122 77.2509 2.30591 76.74 1.79497C76.2291 1.28404 75.5138 0.977474 74.7984 0.977474C73.9809 0.977474 73.3678 1.28404 72.8569 1.79497C72.3459 2.30591 72.0394 3.02122 72.0394 3.83872C72.0394 4.75841 72.3459 5.37154 72.8569 5.88247Z" fill="white"/>
<path d="M79.8057 7.41527V0.466522H80.9297L84.4041 5.88246V4.55402V0.466522H85.3238V7.41527H84.4041L80.7254 1.69277V3.02121V7.41527H79.8057Z" fill="white"/>
<path d="M70.9153 17.634C68.1563 17.634 65.806 19.6778 65.806 22.539C65.806 25.4003 68.0541 27.444 70.9153 27.444C73.6744 27.444 76.0247 25.2981 76.0247 22.539C76.0247 19.6778 73.6744 17.634 70.9153 17.634ZM70.9153 25.6047C69.3825 25.6047 68.0541 24.3784 68.0541 22.6412C68.0541 20.904 69.3825 19.6778 70.9153 19.6778C72.4481 19.6778 73.7766 20.904 73.7766 22.6412C73.7766 24.2762 72.4481 25.6047 70.9153 25.6047ZM59.7769 17.634C57.0178 17.634 54.6675 19.6778 54.6675 22.539C54.6675 25.4003 56.9156 27.444 59.7769 27.444C62.536 27.444 64.8863 25.2981 64.8863 22.539C64.8863 19.6778 62.6381 17.634 59.7769 17.634ZM59.7769 25.6047C58.2441 25.6047 56.9156 24.3784 56.9156 22.6412C56.9156 20.904 58.2441 19.6778 59.7769 19.6778C61.3097 19.6778 62.6381 20.904 62.6381 22.6412C62.6381 24.2762 61.3097 25.6047 59.7769 25.6047ZM46.5947 19.1668V21.3128H51.7041C51.6019 22.539 51.1931 23.3565 50.58 23.9697C49.8647 24.685 48.6385 25.5025 46.5947 25.5025C43.4269 25.5025 40.9744 23.05 40.9744 19.8822C40.9744 16.7143 43.4269 14.2618 46.5947 14.2618C48.3319 14.2618 49.5581 14.875 50.4778 15.7947L52.0106 14.2618C50.6822 13.0356 49.0472 12.1159 46.5947 12.1159C42.2006 12.1159 38.6241 15.5903 38.6241 19.78C38.6241 23.9697 42.3028 27.444 46.5947 27.444C48.945 27.444 50.6822 26.7287 52.1128 25.2981C53.5435 23.8675 53.9522 21.9259 53.9522 20.3931C53.9522 19.8822 53.9522 19.4734 53.85 19.0647H46.5947V19.1668ZM100.652 20.8018C100.243 19.6778 98.9147 17.634 96.2578 17.634C93.601 17.634 91.455 19.6778 91.455 22.539C91.455 25.2981 93.601 27.444 96.4622 27.444C98.8125 27.444 100.141 26.0134 100.652 25.2981L98.9147 24.174C98.3016 24.9915 97.5863 25.5025 96.4622 25.5025C95.3381 25.5025 94.5207 24.9915 94.0097 23.9697L100.754 21.2106L100.652 20.8018ZM93.7032 22.4368C93.601 20.4953 95.236 19.5756 96.36 19.5756C97.2797 19.5756 97.995 19.9843 98.1994 20.5975L93.7032 22.4368ZM88.185 27.2397H90.4332V12.6268H88.185V27.2397ZM84.5063 18.7581C83.8932 18.145 82.9735 17.634 81.7472 17.634C79.1925 17.634 76.8422 19.78 76.8422 22.6412C76.8422 25.4003 79.1925 27.5462 81.7472 27.5462C82.9735 27.5462 83.8932 27.0353 84.4041 26.4222H84.5063V27.1375C84.5063 29.079 83.4844 29.9987 81.8494 29.9987C80.521 29.9987 79.6013 29.079 79.2947 28.2615L77.3531 28.9768C77.8641 30.3053 79.3969 31.9403 81.8494 31.9403C84.5063 31.9403 86.6522 30.4075 86.6522 26.8309V17.9406H84.5063V18.7581ZM81.9516 25.6047C80.4188 25.6047 79.0903 24.3784 79.0903 22.6412C79.0903 20.904 80.4188 19.5756 81.9516 19.5756C83.4844 19.5756 84.7106 20.8018 84.7106 22.6412C84.7106 24.2762 83.4844 25.6047 81.9516 25.6047ZM111.075 12.6268H105.761V27.1375H108.009V21.6193H111.075C113.528 21.6193 115.98 19.8822 115.98 17.1231C115.98 14.364 113.528 12.6268 111.075 12.6268ZM111.075 19.6778H107.907V14.6706H111.075C112.71 14.6706 113.732 15.999 113.732 17.1231C113.732 18.3493 112.812 19.6778 111.075 19.6778ZM124.87 17.5318C123.235 17.5318 121.6 18.2472 120.885 19.78L122.827 20.5975C123.235 19.78 124.053 19.5756 124.87 19.5756C125.994 19.5756 127.221 20.2909 127.221 21.415V21.6193C126.812 21.415 125.994 21.0062 124.87 21.0062C122.724 21.0062 120.578 22.1303 120.578 24.2762C120.578 26.2178 122.316 27.444 124.257 27.444C125.79 27.444 126.608 26.8309 127.118 26.0134H127.221V27.1375H129.367V21.6193C129.367 19.0647 127.425 17.5318 124.87 17.5318ZM124.564 25.6047C123.848 25.6047 122.827 25.2981 122.827 24.3784C122.827 23.2543 124.053 22.8456 125.177 22.8456C126.199 22.8456 126.608 23.05 127.221 23.3565C127.016 24.5828 125.892 25.6047 124.564 25.6047ZM137.235 17.9406L134.68 24.2762H134.578L131.921 17.9406H129.571L133.556 26.7287L131.308 31.6337H133.658L139.79 17.9406H137.235ZM117.206 27.2397H119.454V12.6268H117.206V27.2397Z" fill="white"/>
<path d="M1.22346 1.07965C0.916899 1.38621 0.712524 1.99934 0.712524 2.71465V28.4659C0.712524 29.1812 0.916899 29.7943 1.22346 30.1009L1.32565 30.2031L16.1428 15.7947V15.4881L1.22346 1.07965Z" fill="url(#paint0_linear_20005128_12696)"/>
<path d="M21.0478 20.4953L16.1428 15.6925V15.3859L21.0478 10.5831L21.15 10.6853L26.9747 13.9553C28.6097 14.875 28.6097 16.4078 26.9747 17.3275L21.15 20.4953H21.0478Z" fill="url(#paint1_linear_20005128_12696)"/>
<path d="M21.15 20.4953L16.1428 15.5903L1.22345 30.1009C1.83657 30.6118 2.75626 30.714 3.77814 30.1009L21.15 20.4953Z" fill="url(#paint2_linear_20005128_12696)"/>
<path d="M21.15 10.6853L3.77814 0.977472C2.75626 0.466535 1.83657 0.466535 1.22345 1.07966L16.0406 15.5903L21.15 10.6853Z" fill="url(#paint3_linear_20005128_12696)"/>
</g>
</g>
</g>
<defs>
<linearGradient id="paint0_linear_20005128_12696" x1="14.6706" y1="28.8549" x2="-4.86364" y2="8.84733" gradientUnits="userSpaceOnUse">
<stop stop-color="#00A0FF"/>
<stop offset="0.0066" stop-color="#00A1FF"/>
<stop offset="0.2601" stop-color="#00BEFF"/>
<stop offset="0.5122" stop-color="#00D2FF"/>
<stop offset="0.7604" stop-color="#00DFFF"/>
<stop offset="1" stop-color="#00E3FF"/>
</linearGradient>
<linearGradient id="paint1_linear_20005128_12696" x1="29.169" y1="15.5653" x2="0.313671" y2="15.5653" gradientUnits="userSpaceOnUse">
<stop stop-color="#FFE000"/>
<stop offset="0.4087" stop-color="#FFBD00"/>
<stop offset="0.7754" stop-color="#FFA500"/>
<stop offset="1" stop-color="#FF9C00"/>
</linearGradient>
<linearGradient id="paint2_linear_20005128_12696" x1="8.54191" y1="22.5438" x2="-17.9482" y2="-4.58808" gradientUnits="userSpaceOnUse">
<stop stop-color="#FF3A44"/>
<stop offset="1" stop-color="#C31162"/>
</linearGradient>
<linearGradient id="paint3_linear_20005128_12696" x1="-11.8597" y1="29.4866" x2="-0.0306976" y2="17.371" gradientUnits="userSpaceOnUse">
<stop stop-color="#32A071"/>
<stop offset="0.0685" stop-color="#2DA771"/>
<stop offset="0.4762" stop-color="#15CF74"/>
<stop offset="0.8009" stop-color="#06E775"/>
<stop offset="1" stop-color="#00F076"/>
</linearGradient>
<clipPath id="clip0_20005128_12696">
<rect width="139" height="32.7" fill="white" transform="translate(0.700012 0.159973)"/>
</clipPath>
<clipPath id="clip1_20005128_12696">
<rect width="139" height="32.7" fill="white" transform="translate(0.700012 0.159973)"/>
</clipPath>
<clipPath id="clip2_20005128_12696">
<rect width="138.975" height="32.7" fill="white" transform="translate(0.712524 0.159973)"/>
</clipPath>
</defs>
</svg>
