<svg width="20" height="20" viewBox="0 0 20 20" fill="none" xmlns="http://www.w3.org/2000/svg">
<path d="M16.3612 6.66461C16.372 6.81044 16.372 6.95544 16.372 7.10044C16.372 11.5379 12.9945 16.6513 6.82199 16.6513C4.92033 16.6513 3.15366 16.1004 1.66699 15.1438C1.93699 15.1746 2.19699 15.1854 2.47783 15.1854C4.04699 15.1854 5.49116 14.6554 6.64533 13.7513C5.16949 13.7204 3.93283 12.7538 3.50616 11.4238C3.71366 11.4546 3.92199 11.4754 4.14033 11.4754C4.44116 11.4754 4.74366 11.4338 5.02449 11.3613C3.48533 11.0496 2.33283 9.69878 2.33283 8.06711V8.02544C2.78033 8.27461 3.29949 8.43044 3.84949 8.45128C2.94533 7.84961 2.35283 6.82044 2.35283 5.65628C2.35283 5.03294 2.51866 4.46128 2.80949 3.96294C4.46199 5.99878 6.94616 7.32961 9.73116 7.47544C9.67949 7.22544 9.64783 6.96628 9.64783 6.70628C9.64783 4.85628 11.1445 3.34961 13.0045 3.34961C13.9712 3.34961 14.8437 3.75461 15.457 4.40961C16.2153 4.26378 16.942 3.98294 17.587 3.59878C17.3378 4.37794 16.807 5.03294 16.1112 5.44878C16.787 5.37544 17.442 5.18878 18.0437 4.92878C17.587 5.59378 17.0162 6.18628 16.3612 6.66461Z" fill="#1CA1F2"/>
</svg>
