<svg width="24" height="24" viewBox="0 0 24 24" fill="none" xmlns="http://www.w3.org/2000/svg">
<path d="M11.999 7.37695C9.44498 7.37695 7.37598 9.44695 7.37598 12C7.37598 14.554 9.44498 16.624 11.999 16.624C14.551 16.624 16.622 14.554 16.622 12C16.622 9.44695 14.551 7.37695 11.999 7.37695ZM11.999 15.004C10.34 15.004 8.99498 13.659 8.99498 12.001C8.99498 10.342 10.34 8.99795 11.999 8.99795C13.658 8.99795 15.001 10.342 15.001 12.001C15.001 13.659 13.658 15.004 11.999 15.004Z" fill="white"/>
<path d="M16.8055 8.28491C17.4009 8.28491 17.8835 7.80227 17.8835 7.20691C17.8835 6.61154 17.4009 6.12891 16.8055 6.12891C16.2102 6.12891 15.7275 6.61154 15.7275 7.20691C15.7275 7.80227 16.2102 8.28491 16.8055 8.28491Z" fill="white"/>
<path d="M20.533 6.11088C20.064 4.90188 19.109 3.94588 17.9 3.47888C17.201 3.21588 16.462 3.07488 15.714 3.05888C14.751 3.01688 14.446 3.00488 12.004 3.00488C9.56195 3.00488 9.24895 3.00488 8.29395 3.05888C7.54795 3.07388 6.80895 3.21488 6.10995 3.47888C4.89995 3.94588 3.94495 4.90188 3.47695 6.11088C3.21395 6.81088 3.07295 7.54888 3.05795 8.29688C3.01495 9.25888 3.00195 9.56388 3.00195 12.0069C3.00195 14.4489 3.00195 14.7599 3.05795 15.7169C3.07295 16.4649 3.21395 17.2029 3.47695 17.9039C3.94595 19.1119 4.90095 20.0679 6.11095 20.5359C6.80695 20.8079 7.54595 20.9619 8.29595 20.9859C9.25895 21.0279 9.56395 21.0409 12.006 21.0409C14.448 21.0409 14.761 21.0409 15.716 20.9859C16.463 20.9709 17.202 20.8289 17.902 20.5669C19.111 20.0979 20.066 19.1429 20.535 17.9339C20.798 17.2339 20.939 16.4959 20.954 15.7479C20.997 14.7859 21.01 14.4809 21.01 12.0379C21.01 9.59488 21.01 9.28488 20.954 8.32788C20.941 7.56988 20.801 6.81888 20.533 6.11088ZM19.315 15.6429C19.308 16.2189 19.204 16.7899 19.004 17.3309C18.699 18.1179 18.078 18.7399 17.292 19.0419C16.757 19.2409 16.193 19.3449 15.622 19.3529C14.672 19.3969 14.404 19.4079 11.968 19.4079C9.52995 19.4079 9.28095 19.4079 8.31295 19.3529C7.74395 19.3459 7.17795 19.2409 6.64395 19.0419C5.85495 18.7409 5.22995 18.1189 4.92495 17.3309C4.72895 16.7969 4.62295 16.2319 4.61395 15.6619C4.57095 14.7119 4.56095 14.4439 4.56095 12.0079C4.56095 9.57088 4.56095 9.32188 4.61395 8.35288C4.62095 7.77688 4.72495 7.20688 4.92495 6.66588C5.22995 5.87688 5.85495 5.25588 6.64395 4.95388C7.17795 4.75588 7.74395 4.65088 8.31295 4.64288C9.26395 4.59988 9.53095 4.58788 11.968 4.58788C14.405 4.58788 14.655 4.58788 15.622 4.64288C16.193 4.64988 16.757 4.75488 17.292 4.95388C18.078 5.25688 18.699 5.87888 19.004 6.66588C19.2 7.19988 19.306 7.76488 19.315 8.33488C19.358 9.28588 19.369 9.55288 19.369 11.9899C19.369 14.4259 19.369 14.6879 19.326 15.6439H19.315V15.6429Z" fill="white"/>
</svg>
