<svg width="20" height="20" viewBox="0 0 20 20" fill="none" xmlns="http://www.w3.org/2000/svg">
<path d="M17.9944 6.00283C17.8028 5.28783 17.2403 4.72366 16.5261 4.53117C15.2211 4.17283 10.0003 4.167 10.0003 4.167C10.0003 4.167 4.78027 4.16117 3.47444 4.50367C2.77444 4.6945 2.19611 5.27117 2.00277 5.98533C1.65861 7.29033 1.65527 9.997 1.65527 9.997C1.65527 9.997 1.65194 12.717 1.99361 14.0087C2.18527 14.7228 2.74777 15.287 3.46277 15.4795C4.78111 15.8378 9.98777 15.8437 9.98777 15.8437C9.98777 15.8437 15.2086 15.8495 16.5136 15.5078C17.2269 15.3162 17.7919 14.7528 17.9861 14.0387C18.3311 12.7345 18.3336 10.0287 18.3336 10.0287C18.3336 10.0287 18.3503 7.30783 17.9944 6.00283ZM8.33028 12.5045L8.33444 7.5045L12.6736 10.0087L8.33028 12.5045Z" fill="white"/>
</svg>
