<svg width="20" height="20" viewBox="0 0 20 20" fill="none" xmlns="http://www.w3.org/2000/svg">
<path d="M8.33366 14.9998C9.87199 14.9998 11.2862 14.4707 12.4145 13.5932L16.0778 17.2565L17.2562 16.0782L13.5928 12.4148C14.4712 11.2857 15.0003 9.8715 15.0003 8.33317C15.0003 4.65734 12.0095 1.6665 8.33366 1.6665C4.65783 1.6665 1.66699 4.65734 1.66699 8.33317C1.66699 12.009 4.65783 14.9998 8.33366 14.9998ZM8.33366 3.33317C11.0912 3.33317 13.3337 5.57567 13.3337 8.33317C13.3337 11.0907 11.0912 13.3332 8.33366 13.3332C5.57616 13.3332 3.33366 11.0907 3.33366 8.33317C3.33366 5.57567 5.57616 3.33317 8.33366 3.33317Z" fill="white"/>
</svg>
