<svg width="293" height="632" viewBox="0 0 293 632" fill="none" xmlns="http://www.w3.org/2000/svg">
<path fill-rule="evenodd" clip-rule="evenodd" d="M0.664438 315.548C0.664438 227.61 0.664438 139.672 0.665376 51.733C0.665376 45.1316 0.598779 38.5237 1.4139 31.9551C2.43725 23.7067 5.24654 16.263 11.3294 10.3219C16.5625 5.20906 22.9606 2.5096 30.0612 1.294C33.6884 0.672129 37.3494 0.39074 41.0329 0.328834C48.3849 0.205023 55.735 0.175946 63.0889 0.282874C65.9732 0.324144 67.7545 2.32295 67.8755 4.83481C67.9749 6.91897 68.0293 9.01063 68.4692 11.0901C69.8884 17.7994 75.6242 23.1476 82.6958 23.853C84.7922 24.0621 86.8839 24.1531 88.9841 24.1531C127.478 24.1541 165.97 24.1531 204.463 24.1494C207.388 24.1494 210.307 24.1118 213.163 23.3408C220.179 21.448 224.825 15.2406 225.173 7.96574C225.237 6.61788 225.294 5.26159 225.496 3.92968C225.802 1.91306 227.23 0.601782 229.246 0.37198C230.065 0.278184 230.892 0.221906 231.717 0.219092C239.67 0.197519 247.628 0.0587004 255.574 0.447956C261.897 0.757484 268.118 1.75829 273.85 4.6491C283.17 9.34923 288.643 17.0246 290.95 27.0993C292.113 32.1783 292.353 37.3446 292.469 42.5213C292.541 45.746 292.546 48.9735 292.546 52.2001C292.552 228.453 292.555 404.705 292.556 580.958C292.556 587.11 292.569 593.266 291.807 599.385C290.777 607.632 287.966 615.08 281.885 621.016C277.008 625.777 271.081 628.48 264.473 629.788C258.783 630.916 253.006 631.126 247.227 631.134C229.444 631.158 211.661 631.151 193.877 631.152C145.63 631.153 97.382 631.15 49.1334 631.155C43.2044 631.156 37.2753 631.097 31.3941 630.249C22.2392 628.926 14.3076 625.3 8.49012 617.816C4.91355 613.215 2.89405 607.941 1.86601 602.257C0.685074 595.725 0.687888 589.116 0.685074 582.515C0.666314 546.424 0.673818 510.334 0.673818 474.242C0.67288 421.344 0.673818 368.445 0.673818 315.548H0.664438Z" fill="#0B0F19"/>
</svg>
