<svg width="28" height="29" viewBox="0 0 28 29" fill="none" xmlns="http://www.w3.org/2000/svg">
<g clip-path="url(#clip0_20005128_14697)">
<g clip-path="url(#clip1_20005128_14697)">
<mask id="mask0_20005128_14697" style="mask-type:luminance" maskUnits="userSpaceOnUse" x="0" y="0" width="28" height="29">
<path d="M0 0.649902H28V28.6499H0V0.649902Z" fill="white"/>
</mask>
<g mask="url(#mask0_20005128_14697)">
<path d="M22.148 14.7049C20.339 14.7049 18.867 16.1769 18.867 17.9859C18.867 19.7949 20.339 21.2669 22.148 21.2669H26.796L26.851 21.2639L26.905 21.2669C27.509 21.2669 27.999 20.7769 27.999 20.1729V11.5869C27.9989 10.8949 27.8344 10.2129 27.5193 9.59698C27.2041 8.98103 26.7471 8.44872 26.186 8.04386L22.466 1.93986C22.314 1.69086 22.069 1.51286 21.786 1.44486C21.503 1.37686 21.204 1.42586 20.956 1.57886L18.212 3.28086L16.974 1.18686C16.825 0.934858 16.582 0.753858 16.298 0.681858C16.014 0.609858 15.714 0.655858 15.464 0.807858L4.928 7.21286H3.281C2.687 7.21286 2.202 6.73686 2.188 6.14686C2.203 5.55586 2.687 5.08086 3.281 5.08086H5.304C5.908 5.08086 6.398 4.59086 6.398 3.98686C6.398 3.38286 5.908 2.89286 5.304 2.89286H3.281C1.734 2.89186 0.433 3.96886 0.0890002 5.41286C0.030204 5.54929 -8.26529e-05 5.6963 1.69407e-07 5.84486V6.11786V6.17286V24.2749C0.00132352 25.4348 0.462685 26.5468 1.28287 27.367C2.10305 28.1872 3.21508 28.6485 4.375 28.6499H23.625C24.5433 28.6508 25.4386 28.3625 26.1837 27.8257C26.9289 27.289 27.486 26.5312 27.776 25.6599C27.967 25.0869 27.658 24.4669 27.085 24.2759C26.512 24.0849 25.893 24.3939 25.701 24.9669C25.403 25.8609 24.569 26.4619 23.625 26.4619H4.375C3.79522 26.4611 3.2394 26.2304 2.82943 25.8204C2.41946 25.4105 2.18879 24.8546 2.188 24.2749V9.21186C2.53 9.33286 2.898 9.39986 3.282 9.39986H23.626C24.206 9.40039 24.762 9.63094 25.1722 10.0409C25.5824 10.4509 25.8132 11.0069 25.814 11.5869V14.7039H22.15L22.148 14.7049ZM25.812 19.0799H22.148C21.545 19.0799 21.054 18.5889 21.054 17.9859C21.054 17.3829 21.545 16.8919 22.148 16.8919H25.812V19.0799ZM9.14 7.21286L15.654 3.25386L16.819 5.22486C16.8413 5.27963 16.8681 5.33247 16.899 5.38286C16.9228 5.42039 16.9489 5.45645 16.977 5.49086L17.994 7.21186H9.14V7.21286ZM20.535 7.21286L19.325 5.16586L21.172 4.02086L23.118 7.21386H20.534L20.535 7.21286Z" fill="url(#paint0_linear_20005128_14697)"/>
</g>
</g>
</g>
<defs>
<linearGradient id="paint0_linear_20005128_14697" x1="1.69407e-07" y1="14.7169" x2="28" y2="14.7169" gradientUnits="userSpaceOnUse">
<stop stop-color="#6366F1"/>
<stop offset="0.5" stop-color="#8B5CF6"/>
<stop offset="1" stop-color="#D946EF"/>
</linearGradient>
<clipPath id="clip0_20005128_14697">
<rect width="28" height="28" fill="white" transform="translate(0 0.649902)"/>
</clipPath>
<clipPath id="clip1_20005128_14697">
<rect width="28" height="28" fill="white" transform="translate(0 0.649902)"/>
</clipPath>
</defs>
</svg>
