<svg width="29" height="29" viewBox="0 0 29 29" fill="none" xmlns="http://www.w3.org/2000/svg">
<g clip-path="url(#clip0_20005128_14663)">
<g clip-path="url(#clip1_20005128_14663)">
<g clip-path="url(#clip2_20005128_14663)">
<mask id="mask0_20005128_14663" style="mask-type:luminance" maskUnits="userSpaceOnUse" x="0" y="0" width="29" height="29">
<path d="M0.800049 0.0499268H28.8V28.0499H0.800049V0.0499268Z" fill="white"/>
</mask>
<g mask="url(#mask0_20005128_14663)">
<path d="M14.745 28.0499C14.577 28.0499 14.41 28.0119 14.256 27.9349C14.128 27.8709 11.087 26.3289 7.90404 22.8699C6.05173 20.8619 4.51612 18.5834 3.35004 16.1129C1.90604 13.0449 1.04804 9.68593 0.802038 6.12993C0.782038 5.83993 0.878038 5.55393 1.06904 5.33493C1.26004 5.11593 1.53104 4.98193 1.82104 4.96293C3.82404 4.83093 5.39304 3.15393 5.39304 1.14393C5.39404 0.539927 5.88304 0.0499268 6.48704 0.0499268H23.112C23.716 0.0499268 24.206 0.539927 24.206 1.14393C24.206 3.15293 25.774 4.82993 27.776 4.96293C28.071 4.98193 28.345 5.11993 28.536 5.34493C28.727 5.56993 28.82 5.86293 28.792 6.15693C28.418 10.1059 27.328 13.7989 25.551 17.1339C25.267 17.6669 24.605 17.8689 24.072 17.5849C23.539 17.3009 23.337 16.6389 23.621 16.1049C25.109 13.3109 26.076 10.2389 26.502 6.95993C24.262 6.36993 22.542 4.51693 22.119 2.23593H7.48104C7.05604 4.52893 5.32304 6.38693 3.07004 6.96893C3.64504 12.4869 5.79004 17.3109 9.45304 21.3219C11.646 23.7229 13.796 25.1389 14.739 25.6989C15.771 25.0709 18.266 23.3849 20.695 20.4599C21.081 19.9949 21.77 19.9319 22.235 20.3179C22.7 20.7039 22.764 21.3939 22.377 21.8579C18.92 26.0199 15.391 27.8539 15.242 27.9299C15.0879 28.0089 14.9182 28.0501 14.745 28.0499ZM15.591 22.1309C15.955 21.6489 15.86 20.9629 15.378 20.5989C14.432 19.8839 13.537 19.0739 12.718 18.1909C10.335 15.6219 8.71904 12.6049 7.90704 9.21193C8.34504 8.87393 8.75604 8.50093 9.13604 8.09593C9.76604 7.42493 10.304 6.67693 10.735 5.86993C11.02 5.33693 10.818 4.67493 10.286 4.38993C9.75404 4.10493 9.09104 4.30693 8.80604 4.83893C8.46377 5.47791 8.03877 6.069 7.54204 6.59693C7.10304 7.06393 6.61104 7.47893 6.08004 7.82993C5.70704 8.07593 5.52204 8.52393 5.61104 8.96193C6.44404 13.0339 8.29504 16.6389 11.114 19.6779C12.0158 20.651 13.0013 21.5431 14.059 22.3439C14.1734 22.431 14.3039 22.4946 14.443 22.531C14.5821 22.5675 14.727 22.576 14.8694 22.5562C15.0118 22.5364 15.1488 22.4887 15.2727 22.4157C15.3965 22.3427 15.5047 22.2459 15.591 22.1309Z" fill="url(#paint0_linear_20005128_14663)"/>
</g>
</g>
</g>
</g>
<defs>
<linearGradient id="paint0_linear_20005128_14663" x1="0.799038" y1="14.1169" x2="28.798" y2="14.1169" gradientUnits="userSpaceOnUse">
<stop stop-color="#6366F1"/>
<stop offset="0.5" stop-color="#8B5CF6"/>
<stop offset="1" stop-color="#D946EF"/>
</linearGradient>
<clipPath id="clip0_20005128_14663">
<rect width="28" height="28" fill="white" transform="translate(0.800049 0.0499268)"/>
</clipPath>
<clipPath id="clip1_20005128_14663">
<rect width="28" height="28" fill="white" transform="translate(0.800049 0.0499268)"/>
</clipPath>
<clipPath id="clip2_20005128_14663">
<rect width="28" height="28" fill="white" transform="translate(0.800049 0.0499268)"/>
</clipPath>
</defs>
</svg>
