<svg width="140" height="33" viewBox="0 0 140 33" fill="none" xmlns="http://www.w3.org/2000/svg">
<g clip-path="url(#clip0_20005128_14182)">
<path d="M46.286 4.29745C46.286 5.31932 45.9794 6.03464 45.3663 6.64776C44.651 7.36307 43.8335 7.66964 42.7094 7.66964C41.6875 7.66964 40.7678 7.36307 40.0525 6.64776C39.3372 5.93245 38.9285 5.11495 38.9285 4.09307C38.9285 3.0712 39.3372 2.15151 40.0525 1.53838C40.7678 0.823072 41.6875 0.51651 42.7094 0.51651C43.2203 0.51651 43.7313 0.618698 44.14 0.823073C44.651 1.02745 44.9575 1.23182 45.2641 1.64057L44.7532 2.04932C44.2422 1.4362 43.6291 1.23182 42.8116 1.23182C42.0963 1.23182 41.381 1.53839 40.87 2.04932C40.3591 2.56026 40.0525 3.27557 40.0525 4.09307C40.0525 4.91057 40.3591 5.62589 40.87 6.13682C41.381 6.64776 42.0963 6.95432 42.8116 6.95432C43.6291 6.95432 44.2422 6.64776 44.8553 6.13682C45.1619 5.83026 45.3663 5.31932 45.4685 4.7062H42.9138V3.68432H46.3882C46.286 3.8887 46.286 4.09307 46.286 4.29745Z" fill="#3E4265"/>
<path d="M51.8041 1.33401H48.5341V3.58214H51.4975V4.39964H48.5341V6.64776H51.8041V7.46526H47.6144V0.51651H51.8041V1.33401Z" fill="#3E4265"/>
<path d="M55.6872 7.46526H54.7675V1.33401H52.7238V0.51651H57.6288V1.33401H55.585V7.46526H55.6872Z" fill="#3E4265"/>
<path d="M61.2053 7.46526V0.51651H62.125V7.46526H61.2053Z" fill="#3E4265"/>
<path d="M66.2125 7.46526H65.2928V1.33401H63.249V0.51651H68.2562V1.33401H66.2125V7.46526Z" fill="#3E4265"/>
<path d="M77.5553 6.54559C76.84 7.2609 76.0225 7.56746 74.8985 7.56746C73.8766 7.56746 72.9569 7.2609 72.2416 6.54559C71.5263 5.83027 71.2197 5.01277 71.2197 3.9909C71.2197 2.96902 71.5263 2.15152 72.2416 1.43621C72.9569 0.7209 73.7744 0.414337 74.8985 0.414337C75.9204 0.414337 76.84 0.7209 77.5553 1.43621C78.2707 2.15152 78.5772 2.96902 78.5772 3.9909C78.5772 5.01277 78.2707 5.83027 77.5553 6.54559ZM72.9569 5.93246C73.4678 6.4434 74.1832 6.74996 74.8985 6.74996C75.6138 6.74996 76.3291 6.4434 76.84 5.93246C77.351 5.42153 77.6575 4.70621 77.6575 3.88871C77.6575 3.07121 77.351 2.3559 76.84 1.84496C76.3291 1.33402 75.6138 1.02746 74.8985 1.02746C74.081 1.02746 73.4678 1.33402 72.9569 1.84496C72.446 2.3559 72.1394 3.07121 72.1394 3.88871C72.1394 4.8084 72.446 5.42153 72.9569 5.93246Z" fill="#3E4265"/>
<path d="M79.9056 7.46526V0.51651H81.0297L84.5041 5.93245V4.60401V0.51651H85.4238V7.46526H84.5041L80.8253 1.74276V3.0712V7.46526H79.9056Z" fill="#3E4265"/>
<path d="M71.0154 17.684C68.2563 17.684 65.906 19.7278 65.906 22.589C65.906 25.4503 68.1541 27.494 71.0154 27.494C73.7744 27.494 76.1247 25.3481 76.1247 22.589C76.1247 19.7278 73.7744 17.684 71.0154 17.684ZM71.0154 25.6546C69.4826 25.6546 68.1541 24.4284 68.1541 22.6912C68.1541 20.954 69.4826 19.7278 71.0154 19.7278C72.5482 19.7278 73.8766 20.954 73.8766 22.6912C73.8766 24.3262 72.5482 25.6546 71.0154 25.6546ZM59.8769 17.684C57.1179 17.684 54.7676 19.7278 54.7676 22.589C54.7676 25.4503 57.0157 27.494 59.8769 27.494C62.636 27.494 64.9863 25.3481 64.9863 22.589C64.9863 19.7278 62.7382 17.684 59.8769 17.684ZM59.8769 25.6546C58.3441 25.6546 57.0157 24.4284 57.0157 22.6912C57.0157 20.954 58.3441 19.7278 59.8769 19.7278C61.4097 19.7278 62.7382 20.954 62.7382 22.6912C62.7382 24.3262 61.4097 25.6546 59.8769 25.6546ZM46.6947 19.2168V21.3628H51.8041C51.7019 22.589 51.2932 23.4065 50.6801 24.0196C49.9647 24.735 48.7385 25.5525 46.6947 25.5525C43.5269 25.5525 41.0744 23.1 41.0744 19.9321C41.0744 16.7643 43.5269 14.3118 46.6947 14.3118C48.4319 14.3118 49.6582 14.925 50.5779 15.8446L52.1107 14.3118C50.7822 13.0856 49.1472 12.1659 46.6947 12.1659C42.3007 12.1659 38.7241 15.6403 38.7241 19.83C38.7241 24.0196 42.4029 27.494 46.6947 27.494C49.0451 27.494 50.7822 26.7787 52.2129 25.3481C53.6435 23.9175 54.0522 21.9759 54.0522 20.4431C54.0522 19.9321 54.0522 19.5234 53.9501 19.1146H46.6947V19.2168ZM100.752 20.8518C100.343 19.7278 99.0147 17.684 96.3579 17.684C93.701 17.684 91.5551 19.7278 91.5551 22.589C91.5551 25.3481 93.701 27.494 96.5622 27.494C98.9126 27.494 100.241 26.0634 100.752 25.3481L99.0147 24.224C98.4016 25.0415 97.6863 25.5525 96.5622 25.5525C95.4382 25.5525 94.6207 25.0415 94.1098 24.0196L100.854 21.2606L100.752 20.8518ZM93.8032 22.4868C93.701 20.5453 95.336 19.6256 96.4601 19.6256C97.3797 19.6256 98.0951 20.0343 98.2994 20.6475L93.8032 22.4868ZM88.2851 27.2896H90.5332V12.6768H88.2851V27.2896ZM84.6063 18.8081C83.9932 18.195 83.0735 17.684 81.8473 17.684C79.2926 17.684 76.9422 19.83 76.9422 22.6912C76.9422 25.4503 79.2926 27.5962 81.8473 27.5962C83.0735 27.5962 83.9932 27.0853 84.5041 26.4721H84.6063V27.1875C84.6063 29.129 83.5844 30.0487 81.9494 30.0487C80.621 30.0487 79.7013 29.129 79.3947 28.3115L77.4532 29.0268C77.9641 30.3553 79.4969 31.9903 81.9494 31.9903C84.6063 31.9903 86.7522 30.4575 86.7522 26.8809V17.9906H84.6063V18.8081ZM82.0516 25.6546C80.5188 25.6546 79.1904 24.4284 79.1904 22.6912C79.1904 20.954 80.5188 19.6256 82.0516 19.6256C83.5844 19.6256 84.8107 20.8518 84.8107 22.6912C84.8107 24.3262 83.5844 25.6546 82.0516 25.6546ZM111.175 12.6768H105.861V27.1875H108.109V21.6693H111.175C113.628 21.6693 116.08 19.9321 116.08 17.1731C116.08 14.414 113.628 12.6768 111.175 12.6768ZM111.175 19.7278H108.007V14.7206H111.175C112.81 14.7206 113.832 16.049 113.832 17.1731C113.832 18.3993 112.912 19.7278 111.175 19.7278ZM124.97 17.5818C123.335 17.5818 121.7 18.2971 120.985 19.83L122.927 20.6475C123.335 19.83 124.153 19.6256 124.97 19.6256C126.094 19.6256 127.321 20.3409 127.321 21.465V21.6693C126.912 21.465 126.094 21.0562 124.97 21.0562C122.824 21.0562 120.679 22.1803 120.679 24.3262C120.679 26.2678 122.416 27.494 124.357 27.494C125.89 27.494 126.708 26.8809 127.218 26.0634H127.321V27.1875H129.467V21.6693C129.467 19.1146 127.525 17.5818 124.97 17.5818ZM124.664 25.6546C123.948 25.6546 122.927 25.3481 122.927 24.4284C122.927 23.3043 124.153 22.8956 125.277 22.8956C126.299 22.8956 126.708 23.1 127.321 23.4065C127.116 24.6328 125.992 25.6546 124.664 25.6546ZM137.335 17.9906L134.78 24.3262H134.678L132.021 17.9906H129.671L133.656 26.7787L131.408 31.6837H133.759L139.89 17.9906H137.335ZM117.306 27.2896H119.554V12.6768H117.306V27.2896Z" fill="#3E4265"/>
<path d="M1.32344 1.12964C1.01687 1.4362 0.8125 2.04933 0.8125 2.76464V28.5159C0.8125 29.2312 1.01687 29.8443 1.32344 30.1509L1.42563 30.2531L16.2428 15.8446V15.5381L1.32344 1.12964Z" fill="url(#paint0_linear_20005128_14182)"/>
<path d="M21.1478 20.5453L16.2428 15.7425V15.4359L21.1478 10.6331L21.25 10.7353L27.0747 14.0053C28.7097 14.925 28.7097 16.4578 27.0747 17.3775L21.25 20.5453H21.1478Z" fill="url(#paint1_linear_20005128_14182)"/>
<path d="M21.25 20.5453L16.2429 15.6403L1.32349 30.1509C1.93661 30.6618 2.8563 30.764 3.87817 30.1509L21.25 20.5453Z" fill="url(#paint2_linear_20005128_14182)"/>
<path d="M21.25 10.7353L3.87817 1.02746C2.8563 0.516523 1.93661 0.516523 1.32349 1.12965L16.1407 15.6403L21.25 10.7353Z" fill="url(#paint3_linear_20005128_14182)"/>
</g>
<defs>
<linearGradient id="paint0_linear_20005128_14182" x1="14.7706" y1="28.9049" x2="-4.76367" y2="8.89732" gradientUnits="userSpaceOnUse">
<stop stop-color="#00A0FF"/>
<stop offset="0.0066" stop-color="#00A1FF"/>
<stop offset="0.2601" stop-color="#00BEFF"/>
<stop offset="0.5122" stop-color="#00D2FF"/>
<stop offset="0.7604" stop-color="#00DFFF"/>
<stop offset="1" stop-color="#00E3FF"/>
</linearGradient>
<linearGradient id="paint1_linear_20005128_14182" x1="29.2689" y1="15.6152" x2="0.413647" y2="15.6152" gradientUnits="userSpaceOnUse">
<stop stop-color="#FFE000"/>
<stop offset="0.4087" stop-color="#FFBD00"/>
<stop offset="0.7754" stop-color="#FFA500"/>
<stop offset="1" stop-color="#FF9C00"/>
</linearGradient>
<linearGradient id="paint2_linear_20005128_14182" x1="8.64195" y1="22.5938" x2="-17.8481" y2="-4.5381" gradientUnits="userSpaceOnUse">
<stop stop-color="#FF3A44"/>
<stop offset="1" stop-color="#C31162"/>
</linearGradient>
<linearGradient id="paint3_linear_20005128_14182" x1="-11.7597" y1="29.5365" x2="0.069339" y2="17.421" gradientUnits="userSpaceOnUse">
<stop stop-color="#32A071"/>
<stop offset="0.0685" stop-color="#2DA771"/>
<stop offset="0.4762" stop-color="#15CF74"/>
<stop offset="0.8009" stop-color="#06E775"/>
<stop offset="1" stop-color="#00F076"/>
</linearGradient>
<clipPath id="clip0_20005128_14182">
<rect width="138.975" height="32.7" fill="white" transform="translate(0.8125 0.209961)"/>
</clipPath>
</defs>
</svg>
